<mxfile host="app.diagrams.net" modified="2023-06-02T08:45:42.154Z" agent="Mozilla/5.0 (X11; Linux x86_64) AppleWebKit/537.36 (KHTML, like Gecko) Chrome/114.0.0.0 Safari/537.36" etag="hKeGJVRCa_05QEcWIpA3" version="21.3.6" type="github" pages="5">
  <diagram name="Page-1" id="58cdce13-f638-feb5-8d6f-7d28b1aa9fa0">
    <mxGraphModel dx="683" dy="369" grid="1" gridSize="10" guides="1" tooltips="1" connect="1" arrows="1" fold="1" page="1" pageScale="1" pageWidth="827" pageHeight="1169" background="none" math="0" shadow="0">
      <root>
        <mxCell id="0" />
        <mxCell id="1" parent="0" />
        <mxCell id="382b91b5511bd0f7-1" value="" style="ellipse;html=1;shape=startState;fillColor=#000000;strokeColor=default;rounded=1;shadow=0;comic=0;labelBackgroundColor=none;fontFamily=Verdana;fontSize=12;fontColor=#000000;align=center;direction=south;" parent="1" vertex="1">
          <mxGeometry x="400.00000000000006" y="40" width="40" height="40" as="geometry" />
        </mxCell>
        <mxCell id="382b91b5511bd0f7-5" value="Platooning" style="rounded=1;whiteSpace=wrap;html=1;arcSize=24;fillColor=#ffffc0;strokeColor=default;shadow=0;comic=0;labelBackgroundColor=none;fontFamily=Verdana;fontSize=12;fontColor=#000000;align=center;" parent="1" vertex="1">
          <mxGeometry x="360.00000000000006" y="240" width="120" height="40" as="geometry" />
        </mxCell>
        <mxCell id="382b91b5511bd0f7-6" value="Initiate Platoon" style="rounded=1;whiteSpace=wrap;html=1;arcSize=24;fillColor=#ffffc0;strokeColor=default;shadow=0;comic=0;labelBackgroundColor=none;fontFamily=Verdana;fontSize=12;fontColor=#000000;align=center;" parent="1" vertex="1">
          <mxGeometry x="360.00000000000006" y="120" width="120" height="40" as="geometry" />
        </mxCell>
        <mxCell id="2a3bc250acf0617d-9" value="" style="edgeStyle=orthogonalEdgeStyle;html=1;labelBackgroundColor=none;endArrow=classic;endSize=8;strokeColor=#000000;fontFamily=Verdana;fontSize=12;align=left;exitX=0.924;exitY=0.501;exitDx=0;exitDy=0;exitPerimeter=0;endFill=1;" parent="1" source="382b91b5511bd0f7-1" target="382b91b5511bd0f7-6" edge="1">
          <mxGeometry relative="1" as="geometry" />
        </mxCell>
        <mxCell id="2a3bc250acf0617d-12" style="edgeStyle=orthogonalEdgeStyle;html=1;exitX=0.5;exitY=1;labelBackgroundColor=none;endArrow=classic;endSize=8;strokeColor=#000000;fontFamily=Verdana;fontSize=12;align=left;exitDx=0;exitDy=0;entryX=0.5;entryY=0;entryDx=0;entryDy=0;endFill=1;" parent="1" source="382b91b5511bd0f7-6" target="382b91b5511bd0f7-5" edge="1">
          <mxGeometry relative="1" as="geometry">
            <mxPoint x="430.00000000000006" y="200" as="targetPoint" />
          </mxGeometry>
        </mxCell>
        <mxCell id="9d3UX6hWztNE6AuxFIc4-4" value="platoonStatus == True" style="edgeLabel;html=1;align=center;verticalAlign=middle;resizable=0;points=[];labelBackgroundColor=none;" vertex="1" connectable="0" parent="2a3bc250acf0617d-12">
          <mxGeometry x="-0.2452" y="-2" relative="1" as="geometry">
            <mxPoint x="62" y="10" as="offset" />
          </mxGeometry>
        </mxCell>
        <mxCell id="tH49NBlQhJIF7KGzx8hd-2" value="&lt;span style=&quot;color: rgb(0, 0, 0); font-family: Helvetica; font-size: 11px; font-style: normal; font-variant-ligatures: normal; font-variant-caps: normal; font-weight: 400; letter-spacing: normal; orphans: 2; text-indent: 0px; text-transform: none; widows: 2; word-spacing: 0px; -webkit-text-stroke-width: 0px; text-decoration-thickness: initial; text-decoration-style: initial; text-decoration-color: initial; float: none; display: inline !important;&quot;&gt;malfunction == True AND&lt;/span&gt;&lt;br style=&quot;border-color: var(--border-color); color: rgb(0, 0, 0); font-family: Helvetica; font-size: 11px; font-style: normal; font-variant-ligatures: normal; font-variant-caps: normal; font-weight: 400; letter-spacing: normal; orphans: 2; text-indent: 0px; text-transform: none; widows: 2; word-spacing: 0px; -webkit-text-stroke-width: 0px; text-decoration-thickness: initial; text-decoration-style: initial; text-decoration-color: initial;&quot;&gt;&lt;span style=&quot;color: rgb(0, 0, 0); font-family: Helvetica; font-size: 11px; font-style: normal; font-variant-ligatures: normal; font-variant-caps: normal; font-weight: 400; letter-spacing: normal; orphans: 2; text-indent: 0px; text-transform: none; widows: 2; word-spacing: 0px; -webkit-text-stroke-width: 0px; text-decoration-thickness: initial; text-decoration-style: initial; text-decoration-color: initial; float: none; display: inline !important;&quot;&gt;mitigationStatus == False&lt;/span&gt;" style="edgeStyle=orthogonalEdgeStyle;rounded=0;orthogonalLoop=1;jettySize=auto;html=1;strokeColor=#000000;align=left;labelBackgroundColor=none;" edge="1" parent="1" source="9d3UX6hWztNE6AuxFIc4-5" target="tH49NBlQhJIF7KGzx8hd-1">
          <mxGeometry y="-140" relative="1" as="geometry">
            <mxPoint as="offset" />
          </mxGeometry>
        </mxCell>
        <mxCell id="9d3UX6hWztNE6AuxFIc4-5" value="Malfunction" style="rounded=1;whiteSpace=wrap;html=1;arcSize=24;fillColor=#ffffc0;strokeColor=default;shadow=0;comic=0;labelBackgroundColor=none;fontFamily=Verdana;fontSize=12;fontColor=#000000;align=center;" vertex="1" parent="1">
          <mxGeometry x="200" y="400" width="120" height="40" as="geometry" />
        </mxCell>
        <mxCell id="9d3UX6hWztNE6AuxFIc4-10" style="edgeStyle=orthogonalEdgeStyle;html=1;exitX=0.25;exitY=1;labelBackgroundColor=none;endArrow=classic;endSize=8;strokeColor=#000000;fontFamily=Verdana;fontSize=12;align=left;exitDx=0;exitDy=0;entryX=0.5;entryY=0;entryDx=0;entryDy=0;endFill=1;" edge="1" parent="1" source="382b91b5511bd0f7-5" target="9d3UX6hWztNE6AuxFIc4-5">
          <mxGeometry relative="1" as="geometry">
            <mxPoint x="440.00000000000006" y="420" as="sourcePoint" />
            <mxPoint x="440.00000000000006" y="340" as="targetPoint" />
          </mxGeometry>
        </mxCell>
        <mxCell id="9d3UX6hWztNE6AuxFIc4-11" value="malfunction == True" style="edgeLabel;html=1;align=left;verticalAlign=middle;resizable=0;points=[];labelBackgroundColor=none;" vertex="1" connectable="0" parent="9d3UX6hWztNE6AuxFIc4-10">
          <mxGeometry x="-0.2452" y="-2" relative="1" as="geometry">
            <mxPoint x="-76" y="-28" as="offset" />
          </mxGeometry>
        </mxCell>
        <mxCell id="9d3UX6hWztNE6AuxFIc4-16" value="" style="ellipse;html=1;shape=endState;fillColor=#000000;strokeColor=default;rounded=1;shadow=0;comic=0;labelBackgroundColor=none;fontFamily=Verdana;fontSize=12;fontColor=#000000;align=center;" vertex="1" parent="1">
          <mxGeometry x="400.00000000000006" y="640" width="40" height="40" as="geometry" />
        </mxCell>
        <mxCell id="9d3UX6hWztNE6AuxFIc4-19" style="edgeStyle=orthogonalEdgeStyle;html=1;exitX=0;exitY=0.5;labelBackgroundColor=none;endArrow=classic;endSize=8;strokeColor=#000000;fontFamily=Verdana;fontSize=12;align=left;exitDx=0;exitDy=0;entryX=0;entryY=0.5;entryDx=0;entryDy=0;endFill=1;" edge="1" parent="1" source="9d3UX6hWztNE6AuxFIc4-5" target="382b91b5511bd0f7-6">
          <mxGeometry relative="1" as="geometry">
            <mxPoint x="460.00000000000006" y="290" as="sourcePoint" />
            <mxPoint x="490.00000000000006" y="270" as="targetPoint" />
            <Array as="points">
              <mxPoint x="160" y="420" />
              <mxPoint x="160" y="140" />
            </Array>
          </mxGeometry>
        </mxCell>
        <mxCell id="9d3UX6hWztNE6AuxFIc4-20" value="malfunction == False AND&lt;br&gt;mitigationStatus == True" style="edgeLabel;html=1;align=left;verticalAlign=middle;resizable=0;points=[];labelBackgroundColor=none;" vertex="1" connectable="0" parent="9d3UX6hWztNE6AuxFIc4-19">
          <mxGeometry x="-0.2452" y="-2" relative="1" as="geometry">
            <mxPoint x="-2" y="-24" as="offset" />
          </mxGeometry>
        </mxCell>
        <mxCell id="9d3UX6hWztNE6AuxFIc4-23" value="" style="edgeStyle=orthogonalEdgeStyle;html=1;exitX=0.5;exitY=1;labelBackgroundColor=none;endArrow=classic;endSize=8;strokeColor=#000000;fontFamily=Verdana;fontSize=12;align=left;exitDx=0;exitDy=0;entryX=0.5;entryY=0;entryDx=0;entryDy=0;endFill=1;" edge="1" parent="1" source="382b91b5511bd0f7-5" target="9d3UX6hWztNE6AuxFIc4-22">
          <mxGeometry relative="1" as="geometry">
            <mxPoint x="420.00000000000006" y="280" as="sourcePoint" />
            <mxPoint x="420.00000000000006" y="520" as="targetPoint" />
            <Array as="points" />
          </mxGeometry>
        </mxCell>
        <mxCell id="9d3UX6hWztNE6AuxFIc4-24" value="inTargetLocation == True" style="edgeLabel;html=1;align=center;verticalAlign=middle;resizable=0;points=[];labelBackgroundColor=none;" vertex="1" connectable="0" parent="9d3UX6hWztNE6AuxFIc4-23">
          <mxGeometry x="-0.2452" y="-2" relative="1" as="geometry">
            <mxPoint x="72" y="-15" as="offset" />
          </mxGeometry>
        </mxCell>
        <mxCell id="9d3UX6hWztNE6AuxFIc4-25" style="edgeStyle=orthogonalEdgeStyle;rounded=1;orthogonalLoop=1;jettySize=auto;html=1;exitX=0.5;exitY=1;exitDx=0;exitDy=0;entryX=0.5;entryY=0;entryDx=0;entryDy=0;strokeColor=#000000;" edge="1" parent="1" source="9d3UX6hWztNE6AuxFIc4-22" target="9d3UX6hWztNE6AuxFIc4-16">
          <mxGeometry relative="1" as="geometry" />
        </mxCell>
        <mxCell id="9d3UX6hWztNE6AuxFIc4-22" value="Shutdown" style="rounded=1;whiteSpace=wrap;html=1;arcSize=24;fillColor=#ffffc0;strokeColor=default;shadow=0;comic=0;labelBackgroundColor=none;fontFamily=Verdana;fontSize=12;fontColor=#000000;align=center;" vertex="1" parent="1">
          <mxGeometry x="360.00000000000006" y="400" width="120" height="40" as="geometry" />
        </mxCell>
        <mxCell id="tH49NBlQhJIF7KGzx8hd-3" value="??????" style="edgeStyle=orthogonalEdgeStyle;rounded=1;orthogonalLoop=1;jettySize=auto;html=1;exitX=0.5;exitY=1;exitDx=0;exitDy=0;entryX=0.5;entryY=0;entryDx=0;entryDy=0;" edge="1" parent="1" source="tH49NBlQhJIF7KGzx8hd-1" target="9d3UX6hWztNE6AuxFIc4-16">
          <mxGeometry relative="1" as="geometry">
            <Array as="points">
              <mxPoint x="260" y="600" />
            </Array>
          </mxGeometry>
        </mxCell>
        <mxCell id="tH49NBlQhJIF7KGzx8hd-1" value="Manual" style="rounded=1;whiteSpace=wrap;html=1;arcSize=24;fillColor=#ffffc0;strokeColor=default;shadow=0;comic=0;labelBackgroundColor=none;fontFamily=Verdana;fontSize=12;fontColor=#000000;align=center;" vertex="1" parent="1">
          <mxGeometry x="200" y="520" width="120" height="40" as="geometry" />
        </mxCell>
      </root>
    </mxGraphModel>
  </diagram>
  <diagram id="Jf_ORxHevnUfOmAlhUTj" name="Platooning State">
    <mxGraphModel dx="2473" dy="705" grid="1" gridSize="10" guides="1" tooltips="1" connect="1" arrows="1" fold="1" page="1" pageScale="1" pageWidth="1169" pageHeight="827" math="0" shadow="0">
      <root>
        <mxCell id="0" />
        <mxCell id="1" parent="0" />
        <mxCell id="W3U_HygP9Q6-pUnnDwGV-4" value="&lt;font style=&quot;font-size: 16px;&quot;&gt;Predictive Maintenance&lt;/font&gt;" style="rounded=0;whiteSpace=wrap;html=1;fillColor=#bac8d3;align=right;verticalAlign=top;strokeColor=#23445d;fontStyle=1" vertex="1" parent="1">
          <mxGeometry x="1400" y="160" width="320" height="960" as="geometry" />
        </mxCell>
        <mxCell id="W3U_HygP9Q6-pUnnDwGV-3" value="&lt;font style=&quot;font-size: 16px;&quot;&gt;Dynamic Platooning&lt;/font&gt;" style="rounded=0;whiteSpace=wrap;html=1;fillColor=#bac8d3;align=right;verticalAlign=top;strokeColor=#23445d;fontStyle=1" vertex="1" parent="1">
          <mxGeometry x="160" y="161" width="480" height="959" as="geometry" />
        </mxCell>
        <mxCell id="W3U_HygP9Q6-pUnnDwGV-2" value="&lt;font style=&quot;font-size: 16px;&quot;&gt;Navigation&lt;/font&gt;" style="rounded=0;whiteSpace=wrap;html=1;fillColor=#bac8d3;align=right;verticalAlign=top;strokeColor=#23445d;fontStyle=1" vertex="1" parent="1">
          <mxGeometry x="680" y="160" width="680" height="960" as="geometry" />
        </mxCell>
        <mxCell id="W3U_HygP9Q6-pUnnDwGV-1" value="&lt;font style=&quot;font-size: 16px;&quot;&gt;Platoon Management&lt;/font&gt;" style="rounded=0;whiteSpace=wrap;html=1;fillColor=#bac8d3;align=right;verticalAlign=top;strokeColor=#23445d;fontStyle=1" vertex="1" parent="1">
          <mxGeometry x="-320" y="161" width="440" height="959" as="geometry" />
        </mxCell>
        <mxCell id="K7Aae5uCHcJbMM-F2qm3-21" value="" style="edgeStyle=orthogonalEdgeStyle;rounded=0;orthogonalLoop=1;jettySize=auto;html=1;strokeColor=default;entryX=0.5;entryY=0;entryDx=0;entryDy=0;" edge="1" parent="1" source="K7Aae5uCHcJbMM-F2qm3-22" target="K7Aae5uCHcJbMM-F2qm3-39">
          <mxGeometry relative="1" as="geometry" />
        </mxCell>
        <mxCell id="K7Aae5uCHcJbMM-F2qm3-22" value="" style="ellipse;html=1;shape=startState;fillColor=#000000;strokeColor=default;" vertex="1" parent="1">
          <mxGeometry x="680" y="40" width="40" height="40" as="geometry" />
        </mxCell>
        <mxCell id="yNH-4hTNIi52ciixlLkU-2" style="edgeStyle=orthogonalEdgeStyle;rounded=0;orthogonalLoop=1;jettySize=auto;html=1;exitX=0.331;exitY=0.87;exitDx=0;exitDy=0;exitPerimeter=0;entryX=0.5;entryY=0;entryDx=0;entryDy=0;" edge="1" parent="1" source="K7Aae5uCHcJbMM-F2qm3-39" target="yNH-4hTNIi52ciixlLkU-1">
          <mxGeometry relative="1" as="geometry">
            <mxPoint x="342.39999999999964" y="131.99999999999977" as="sourcePoint" />
            <Array as="points">
              <mxPoint x="342" y="130" />
              <mxPoint x="300" y="130" />
            </Array>
          </mxGeometry>
        </mxCell>
        <mxCell id="OgmGZcvQ5tUBhVQYUiQV-2" style="edgeStyle=orthogonalEdgeStyle;rounded=0;orthogonalLoop=1;jettySize=auto;html=1;entryX=0.5;entryY=0;entryDx=0;entryDy=0;exitX=0.58;exitY=0.8;exitDx=0;exitDy=0;exitPerimeter=0;" edge="1" parent="1" source="K7Aae5uCHcJbMM-F2qm3-39" target="OgmGZcvQ5tUBhVQYUiQV-1">
          <mxGeometry relative="1" as="geometry">
            <mxPoint x="870" y="140" as="sourcePoint" />
            <Array as="points">
              <mxPoint x="800" y="130" />
              <mxPoint x="780" y="130" />
            </Array>
          </mxGeometry>
        </mxCell>
        <mxCell id="XmAOfsIHqrRGqF3XLj49-19" style="edgeStyle=orthogonalEdgeStyle;rounded=0;orthogonalLoop=1;jettySize=auto;html=1;exitX=0.83;exitY=1;exitDx=0;exitDy=0;exitPerimeter=0;entryX=0.5;entryY=0;entryDx=0;entryDy=0;" edge="1" parent="1" source="K7Aae5uCHcJbMM-F2qm3-39" target="XmAOfsIHqrRGqF3XLj49-1">
          <mxGeometry relative="1" as="geometry">
            <Array as="points">
              <mxPoint x="1480" y="130" />
              <mxPoint x="1480" y="200" />
              <mxPoint x="1560" y="200" />
            </Array>
          </mxGeometry>
        </mxCell>
        <mxCell id="K7Aae5uCHcJbMM-F2qm3-39" value="" style="rounded=0;whiteSpace=wrap;html=1;strokeColor=#000000;fillColor=#000000;points=[[0,0,0,0,0],[0,0.25,0,0,0],[0,0.5,0,0,0],[0,0.75,0,0,0],[0,1,0,0,0],[0.08,0.9,0,0,0],[0.16,1,0,0,1],[0.25,0,0,0,0],[0.25,1,0,0,1],[0.36,1,0,0,1],[0.43,1,0,0,0],[0.5,0,0,0,0],[0.5,1,0,0,0],[0.58,0.8,0,0,0],[0.66,1,0,0,0],[0.75,0,0,0,0],[0.75,1,0,0,0],[0.83,1,0,0,0],[0.92,1,0,0,0],[1,0,0,0,0],[1,0.25,0,0,0],[1,0.5,0,0,0],[1,0.75,0,0,0],[1,1,0,0,0]];" vertex="1" parent="1">
          <mxGeometry x="-360" y="120" width="2120" height="10" as="geometry" />
        </mxCell>
        <mxCell id="EvU0aFzNsWuQUNdE5Zqm-12" value="Yes" style="edgeStyle=orthogonalEdgeStyle;rounded=0;orthogonalLoop=1;jettySize=auto;html=1;exitX=0;exitY=0.5;exitDx=0;exitDy=0;entryX=0.5;entryY=0;entryDx=0;entryDy=0;labelBackgroundColor=none;" edge="1" parent="1" source="K7Aae5uCHcJbMM-F2qm3-43" target="EvU0aFzNsWuQUNdE5Zqm-1">
          <mxGeometry x="-0.9216" y="-10" relative="1" as="geometry">
            <Array as="points">
              <mxPoint x="-280" y="421" />
              <mxPoint x="-280" y="201" />
              <mxPoint x="-70" y="201" />
            </Array>
            <mxPoint as="offset" />
          </mxGeometry>
        </mxCell>
        <mxCell id="K7Aae5uCHcJbMM-F2qm3-43" value="&lt;span style=&quot;color: rgb(0, 0, 0); font-family: Helvetica; font-size: 10px; font-style: normal; font-variant-ligatures: normal; font-variant-caps: normal; font-weight: 400; letter-spacing: normal; orphans: 2; text-align: left; text-indent: 0px; text-transform: none; widows: 2; word-spacing: 0px; -webkit-text-stroke-width: 0px; text-decoration-thickness: initial; text-decoration-style: initial; text-decoration-color: initial; float: none; display: inline !important;&quot;&gt;vehicleStatus == True&lt;/span&gt;" style="rhombus;whiteSpace=wrap;html=1;fillColor=default;fontSize=10;" vertex="1" parent="1">
          <mxGeometry x="-240" y="361" width="120" height="120" as="geometry" />
        </mxCell>
        <mxCell id="EvU0aFzNsWuQUNdE5Zqm-18" style="edgeStyle=orthogonalEdgeStyle;rounded=0;orthogonalLoop=1;jettySize=auto;html=1;exitX=0.5;exitY=1;exitDx=0;exitDy=0;entryX=0.5;entryY=0;entryDx=0;entryDy=0;" edge="1" parent="1" source="K7Aae5uCHcJbMM-F2qm3-47" target="EvU0aFzNsWuQUNdE5Zqm-17">
          <mxGeometry relative="1" as="geometry" />
        </mxCell>
        <mxCell id="K7Aae5uCHcJbMM-F2qm3-47" value="Return&lt;br&gt;malfunction == True" style="rounded=1;whiteSpace=wrap;html=1;" vertex="1" parent="1">
          <mxGeometry x="-260" y="721" width="160" height="40" as="geometry" />
        </mxCell>
        <mxCell id="mhy0Vyj9R53fs9OlTRd--1" style="edgeStyle=orthogonalEdgeStyle;rounded=0;orthogonalLoop=1;jettySize=auto;html=1;exitX=0.5;exitY=1;exitDx=0;exitDy=0;entryX=0.5;entryY=0;entryDx=0;entryDy=0;" edge="1" parent="1" source="yNH-4hTNIi52ciixlLkU-1" target="yNH-4hTNIi52ciixlLkU-3">
          <mxGeometry relative="1" as="geometry" />
        </mxCell>
        <mxCell id="yNH-4hTNIi52ciixlLkU-1" value="Dynamic platooning" style="rounded=0;whiteSpace=wrap;html=1;" vertex="1" parent="1">
          <mxGeometry x="239.97000000000003" y="241" width="120" height="40" as="geometry" />
        </mxCell>
        <mxCell id="mhy0Vyj9R53fs9OlTRd--4" value="Yes" style="edgeStyle=orthogonalEdgeStyle;rounded=0;orthogonalLoop=1;jettySize=auto;html=1;labelBackgroundColor=none;" edge="1" parent="1" source="yNH-4hTNIi52ciixlLkU-3" target="mhy0Vyj9R53fs9OlTRd--3">
          <mxGeometry x="-0.0015" y="11" relative="1" as="geometry">
            <mxPoint as="offset" />
          </mxGeometry>
        </mxCell>
        <mxCell id="mhy0Vyj9R53fs9OlTRd--8" value="No" style="edgeStyle=orthogonalEdgeStyle;rounded=0;orthogonalLoop=1;jettySize=auto;html=1;labelBackgroundColor=none;" edge="1" parent="1" source="yNH-4hTNIi52ciixlLkU-3" target="yNH-4hTNIi52ciixlLkU-4">
          <mxGeometry x="-0.5241" y="10" relative="1" as="geometry">
            <Array as="points">
              <mxPoint x="299.91" y="460" />
              <mxPoint x="299.91" y="460" />
            </Array>
            <mxPoint as="offset" />
          </mxGeometry>
        </mxCell>
        <mxCell id="yNH-4hTNIi52ciixlLkU-3" value="tryToLeave == True" style="rhombus;whiteSpace=wrap;html=1;fillColor=default;fontSize=10;" vertex="1" parent="1">
          <mxGeometry x="239.97000000000003" y="321" width="120" height="120" as="geometry" />
        </mxCell>
        <mxCell id="mhy0Vyj9R53fs9OlTRd--7" value="Yes" style="edgeStyle=orthogonalEdgeStyle;rounded=0;orthogonalLoop=1;jettySize=auto;html=1;labelBackgroundColor=none;" edge="1" parent="1" source="yNH-4hTNIi52ciixlLkU-4" target="mhy0Vyj9R53fs9OlTRd--5">
          <mxGeometry x="-0.0015" y="11" relative="1" as="geometry">
            <mxPoint as="offset" />
          </mxGeometry>
        </mxCell>
        <mxCell id="mhy0Vyj9R53fs9OlTRd--10" style="edgeStyle=orthogonalEdgeStyle;rounded=0;orthogonalLoop=1;jettySize=auto;html=1;exitX=0.5;exitY=1;exitDx=0;exitDy=0;entryX=0;entryY=0.5;entryDx=0;entryDy=0;" edge="1" parent="1" source="yNH-4hTNIi52ciixlLkU-4" target="yNH-4hTNIi52ciixlLkU-1">
          <mxGeometry relative="1" as="geometry">
            <Array as="points">
              <mxPoint x="299.9700000000001" y="681" />
              <mxPoint x="199.97000000000003" y="681" />
              <mxPoint x="199.97000000000003" y="261" />
            </Array>
          </mxGeometry>
        </mxCell>
        <mxCell id="mhy0Vyj9R53fs9OlTRd--12" value="No" style="edgeLabel;html=1;align=center;verticalAlign=middle;resizable=0;points=[];labelBackgroundColor=none;" vertex="1" connectable="0" parent="mhy0Vyj9R53fs9OlTRd--10">
          <mxGeometry x="-0.9486" y="-1" relative="1" as="geometry">
            <mxPoint x="11" y="3" as="offset" />
          </mxGeometry>
        </mxCell>
        <mxCell id="yNH-4hTNIi52ciixlLkU-4" value="askToJoin == True" style="rhombus;whiteSpace=wrap;html=1;fillColor=default;fontSize=10;" vertex="1" parent="1">
          <mxGeometry x="239.97000000000003" y="521" width="120" height="120" as="geometry" />
        </mxCell>
        <mxCell id="mhy0Vyj9R53fs9OlTRd--9" style="edgeStyle=orthogonalEdgeStyle;rounded=0;orthogonalLoop=1;jettySize=auto;html=1;exitX=0.5;exitY=1;exitDx=0;exitDy=0;" edge="1" parent="1" source="mhy0Vyj9R53fs9OlTRd--3">
          <mxGeometry relative="1" as="geometry">
            <mxPoint x="299.9700000000001" y="521" as="targetPoint" />
            <Array as="points">
              <mxPoint x="459.9700000000001" y="481" />
              <mxPoint x="299.9700000000001" y="481" />
            </Array>
          </mxGeometry>
        </mxCell>
        <mxCell id="mhy0Vyj9R53fs9OlTRd--3" value="&lt;span style=&quot;color: rgb(0, 0, 0); font-family: Verdana; font-size: 12px; font-style: normal; font-variant-ligatures: normal; font-variant-caps: normal; font-weight: 400; letter-spacing: normal; orphans: 2; text-align: center; text-indent: 0px; text-transform: none; widows: 2; word-spacing: 0px; -webkit-text-stroke-width: 0px; background-color: rgb(251, 251, 251); text-decoration-thickness: initial; text-decoration-style: initial; text-decoration-color: initial; float: none; display: inline !important;&quot;&gt;Vehicle Detach&lt;/span&gt;&lt;br style=&quot;border-color: var(--border-color); color: rgb(0, 0, 0); font-family: Verdana; font-size: 12px; font-style: normal; font-variant-ligatures: normal; font-variant-caps: normal; font-weight: 400; letter-spacing: normal; orphans: 2; text-align: center; text-indent: 0px; text-transform: none; widows: 2; word-spacing: 0px; -webkit-text-stroke-width: 0px; background-color: rgb(251, 251, 251); text-decoration-thickness: initial; text-decoration-style: initial; text-decoration-color: initial;&quot;&gt;&lt;font style=&quot;border-color: var(--border-color); color: rgb(0, 0, 0); font-family: Verdana; font-style: normal; font-variant-ligatures: normal; font-variant-caps: normal; font-weight: 400; letter-spacing: normal; orphans: 2; text-align: center; text-indent: 0px; text-transform: none; widows: 2; word-spacing: 0px; -webkit-text-stroke-width: 0px; background-color: rgb(251, 251, 251); text-decoration-thickness: initial; text-decoration-style: initial; text-decoration-color: initial; font-size: 9px;&quot;&gt;nrMembers --&lt;/font&gt;" style="whiteSpace=wrap;html=1;" vertex="1" parent="1">
          <mxGeometry x="439.9700000000001" y="361" width="120" height="40" as="geometry" />
        </mxCell>
        <mxCell id="mhy0Vyj9R53fs9OlTRd--11" style="edgeStyle=orthogonalEdgeStyle;rounded=0;orthogonalLoop=1;jettySize=auto;html=1;exitX=1;exitY=0.5;exitDx=0;exitDy=0;entryX=0;entryY=0.5;entryDx=0;entryDy=0;" edge="1" parent="1" source="mhy0Vyj9R53fs9OlTRd--5" target="yNH-4hTNIi52ciixlLkU-1">
          <mxGeometry relative="1" as="geometry">
            <Array as="points">
              <mxPoint x="600" y="581" />
              <mxPoint x="600" y="681" />
              <mxPoint x="200" y="681" />
              <mxPoint x="200" y="261" />
            </Array>
          </mxGeometry>
        </mxCell>
        <mxCell id="mhy0Vyj9R53fs9OlTRd--5" value="&lt;span style=&quot;color: rgb(0, 0, 0); font-family: Verdana; font-size: 12px; font-style: normal; font-variant-ligatures: normal; font-variant-caps: normal; font-weight: 400; letter-spacing: normal; orphans: 2; text-align: center; text-indent: 0px; text-transform: none; widows: 2; word-spacing: 0px; -webkit-text-stroke-width: 0px; background-color: rgb(251, 251, 251); text-decoration-thickness: initial; text-decoration-style: initial; text-decoration-color: initial; float: none; display: inline !important;&quot;&gt;Vehicle Attach&lt;/span&gt;&lt;br style=&quot;border-color: var(--border-color); color: rgb(0, 0, 0); font-family: Verdana; font-size: 12px; font-style: normal; font-variant-ligatures: normal; font-variant-caps: normal; font-weight: 400; letter-spacing: normal; orphans: 2; text-align: center; text-indent: 0px; text-transform: none; widows: 2; word-spacing: 0px; -webkit-text-stroke-width: 0px; background-color: rgb(251, 251, 251); text-decoration-thickness: initial; text-decoration-style: initial; text-decoration-color: initial;&quot;&gt;&lt;font style=&quot;border-color: var(--border-color); color: rgb(0, 0, 0); font-family: Verdana; font-style: normal; font-variant-ligatures: normal; font-variant-caps: normal; font-weight: 400; letter-spacing: normal; orphans: 2; text-align: center; text-indent: 0px; text-transform: none; widows: 2; word-spacing: 0px; -webkit-text-stroke-width: 0px; background-color: rgb(251, 251, 251); text-decoration-thickness: initial; text-decoration-style: initial; text-decoration-color: initial; font-size: 9px;&quot;&gt;nrMembers ++&lt;/font&gt;" style="whiteSpace=wrap;html=1;" vertex="1" parent="1">
          <mxGeometry x="439.9700000000001" y="561" width="120" height="40" as="geometry" />
        </mxCell>
        <mxCell id="OgmGZcvQ5tUBhVQYUiQV-4" value="" style="edgeStyle=orthogonalEdgeStyle;rounded=0;orthogonalLoop=1;jettySize=auto;html=1;" edge="1" parent="1" source="OgmGZcvQ5tUBhVQYUiQV-1" target="OgmGZcvQ5tUBhVQYUiQV-3">
          <mxGeometry relative="1" as="geometry" />
        </mxCell>
        <mxCell id="OgmGZcvQ5tUBhVQYUiQV-1" value="Check current location" style="rounded=0;whiteSpace=wrap;html=1;" vertex="1" parent="1">
          <mxGeometry x="720" y="240" width="120" height="40" as="geometry" />
        </mxCell>
        <mxCell id="OgmGZcvQ5tUBhVQYUiQV-7" style="edgeStyle=orthogonalEdgeStyle;rounded=0;orthogonalLoop=1;jettySize=auto;html=1;exitX=0.5;exitY=1;exitDx=0;exitDy=0;entryX=0.5;entryY=0;entryDx=0;entryDy=0;" edge="1" parent="1" source="OgmGZcvQ5tUBhVQYUiQV-3" target="OgmGZcvQ5tUBhVQYUiQV-6">
          <mxGeometry relative="1" as="geometry" />
        </mxCell>
        <mxCell id="OgmGZcvQ5tUBhVQYUiQV-8" value="Yes" style="edgeLabel;html=1;align=center;verticalAlign=middle;resizable=0;points=[];labelBackgroundColor=none;" vertex="1" connectable="0" parent="OgmGZcvQ5tUBhVQYUiQV-7">
          <mxGeometry x="-0.7552" y="3" relative="1" as="geometry">
            <mxPoint x="7" y="6" as="offset" />
          </mxGeometry>
        </mxCell>
        <mxCell id="OgmGZcvQ5tUBhVQYUiQV-9" style="edgeStyle=orthogonalEdgeStyle;rounded=0;orthogonalLoop=1;jettySize=auto;html=1;exitX=1;exitY=0.5;exitDx=0;exitDy=0;entryX=0;entryY=0.5;entryDx=0;entryDy=0;" edge="1" parent="1" source="OgmGZcvQ5tUBhVQYUiQV-3" target="OgmGZcvQ5tUBhVQYUiQV-12">
          <mxGeometry relative="1" as="geometry">
            <Array as="points">
              <mxPoint x="900" y="380" />
              <mxPoint x="900" y="380" />
            </Array>
          </mxGeometry>
        </mxCell>
        <mxCell id="OgmGZcvQ5tUBhVQYUiQV-10" value="No" style="edgeLabel;html=1;align=center;verticalAlign=middle;resizable=0;points=[];labelBackgroundColor=none;" vertex="1" connectable="0" parent="OgmGZcvQ5tUBhVQYUiQV-9">
          <mxGeometry x="-0.0876" relative="1" as="geometry">
            <mxPoint y="-10" as="offset" />
          </mxGeometry>
        </mxCell>
        <mxCell id="OgmGZcvQ5tUBhVQYUiQV-3" value="currentLocation == targetLocation" style="rhombus;whiteSpace=wrap;html=1;fillColor=default;fontSize=10;" vertex="1" parent="1">
          <mxGeometry x="720" y="320" width="120" height="120" as="geometry" />
        </mxCell>
        <mxCell id="EvU0aFzNsWuQUNdE5Zqm-20" value="" style="edgeStyle=orthogonalEdgeStyle;rounded=0;orthogonalLoop=1;jettySize=auto;html=1;" edge="1" parent="1" source="OgmGZcvQ5tUBhVQYUiQV-6" target="EvU0aFzNsWuQUNdE5Zqm-19">
          <mxGeometry relative="1" as="geometry" />
        </mxCell>
        <mxCell id="OgmGZcvQ5tUBhVQYUiQV-6" value="Return&lt;br&gt;inTargetLocation == True" style="rounded=1;whiteSpace=wrap;html=1;" vertex="1" parent="1">
          <mxGeometry x="700" y="720" width="160" height="40" as="geometry" />
        </mxCell>
        <mxCell id="OgmGZcvQ5tUBhVQYUiQV-14" value="end of array" style="edgeStyle=orthogonalEdgeStyle;rounded=0;orthogonalLoop=1;jettySize=auto;html=1;labelBackgroundColor=none;" edge="1" parent="1" source="OgmGZcvQ5tUBhVQYUiQV-23" target="OgmGZcvQ5tUBhVQYUiQV-13">
          <mxGeometry x="-0.25" y="40" relative="1" as="geometry">
            <mxPoint as="offset" />
          </mxGeometry>
        </mxCell>
        <mxCell id="OgmGZcvQ5tUBhVQYUiQV-12" value="Check Traffic conditions in current route" style="rounded=0;whiteSpace=wrap;html=1;" vertex="1" parent="1">
          <mxGeometry x="920" y="360" width="120" height="40" as="geometry" />
        </mxCell>
        <mxCell id="OgmGZcvQ5tUBhVQYUiQV-41" style="edgeStyle=orthogonalEdgeStyle;rounded=0;orthogonalLoop=1;jettySize=auto;html=1;exitX=0.5;exitY=1;exitDx=0;exitDy=0;entryX=0.5;entryY=0;entryDx=0;entryDy=0;" edge="1" parent="1" source="OgmGZcvQ5tUBhVQYUiQV-13" target="OgmGZcvQ5tUBhVQYUiQV-1">
          <mxGeometry relative="1" as="geometry">
            <Array as="points">
              <mxPoint x="980" y="1080" />
              <mxPoint x="1320" y="1080" />
              <mxPoint x="1320" y="200" />
              <mxPoint x="780" y="200" />
            </Array>
          </mxGeometry>
        </mxCell>
        <mxCell id="OgmGZcvQ5tUBhVQYUiQV-13" value="Perform routeID" style="rounded=0;whiteSpace=wrap;html=1;" vertex="1" parent="1">
          <mxGeometry x="920" y="720" width="120" height="40" as="geometry" />
        </mxCell>
        <mxCell id="OgmGZcvQ5tUBhVQYUiQV-17" value="" style="edgeStyle=orthogonalEdgeStyle;rounded=0;orthogonalLoop=1;jettySize=auto;html=1;" edge="1" parent="1" source="OgmGZcvQ5tUBhVQYUiQV-12" target="OgmGZcvQ5tUBhVQYUiQV-16">
          <mxGeometry relative="1" as="geometry">
            <mxPoint x="980" y="400" as="sourcePoint" />
            <mxPoint x="980" y="570" as="targetPoint" />
          </mxGeometry>
        </mxCell>
        <mxCell id="OgmGZcvQ5tUBhVQYUiQV-16" value="Calculate currentArrivalTime" style="rounded=0;whiteSpace=wrap;html=1;" vertex="1" parent="1">
          <mxGeometry x="920" y="440" width="120" height="40" as="geometry" />
        </mxCell>
        <mxCell id="OgmGZcvQ5tUBhVQYUiQV-24" value="" style="edgeStyle=orthogonalEdgeStyle;rounded=0;orthogonalLoop=1;jettySize=auto;html=1;" edge="1" parent="1" source="OgmGZcvQ5tUBhVQYUiQV-16" target="OgmGZcvQ5tUBhVQYUiQV-23">
          <mxGeometry relative="1" as="geometry">
            <mxPoint x="980" y="480" as="sourcePoint" />
            <mxPoint x="980" y="680" as="targetPoint" />
          </mxGeometry>
        </mxCell>
        <mxCell id="OgmGZcvQ5tUBhVQYUiQV-26" style="edgeStyle=orthogonalEdgeStyle;rounded=0;orthogonalLoop=1;jettySize=auto;html=1;exitX=0.5;exitY=1;exitDx=0;exitDy=0;entryX=0.5;entryY=0;entryDx=0;entryDy=0;" edge="1" parent="1" source="OgmGZcvQ5tUBhVQYUiQV-32" target="OgmGZcvQ5tUBhVQYUiQV-25">
          <mxGeometry relative="1" as="geometry" />
        </mxCell>
        <mxCell id="OgmGZcvQ5tUBhVQYUiQV-23" value="routeArray" style="rhombus;whiteSpace=wrap;html=1;fillColor=default;" vertex="1" parent="1">
          <mxGeometry x="920" y="520" width="120" height="120" as="geometry" />
        </mxCell>
        <mxCell id="OgmGZcvQ5tUBhVQYUiQV-34" value="Yes" style="edgeStyle=orthogonalEdgeStyle;rounded=0;orthogonalLoop=1;jettySize=auto;html=1;exitX=0.5;exitY=1;exitDx=0;exitDy=0;entryX=0.5;entryY=0;entryDx=0;entryDy=0;labelBackgroundColor=none;" edge="1" parent="1" source="OgmGZcvQ5tUBhVQYUiQV-25" target="OgmGZcvQ5tUBhVQYUiQV-29">
          <mxGeometry y="20" relative="1" as="geometry">
            <mxPoint as="offset" />
          </mxGeometry>
        </mxCell>
        <mxCell id="OgmGZcvQ5tUBhVQYUiQV-35" value="No" style="edgeStyle=orthogonalEdgeStyle;rounded=0;orthogonalLoop=1;jettySize=auto;html=1;exitX=1;exitY=0.5;exitDx=0;exitDy=0;entryX=0.5;entryY=0;entryDx=0;entryDy=0;labelBackgroundColor=none;" edge="1" parent="1" source="OgmGZcvQ5tUBhVQYUiQV-25" target="OgmGZcvQ5tUBhVQYUiQV-23">
          <mxGeometry x="-0.9375" y="10" relative="1" as="geometry">
            <Array as="points">
              <mxPoint x="1280" y="780" />
              <mxPoint x="1280" y="500" />
              <mxPoint x="980" y="500" />
            </Array>
            <mxPoint as="offset" />
          </mxGeometry>
        </mxCell>
        <mxCell id="OgmGZcvQ5tUBhVQYUiQV-25" value="currentArrivalTime &amp;gt; newArrivalTime" style="rhombus;whiteSpace=wrap;html=1;fillColor=default;fontSize=10;" vertex="1" parent="1">
          <mxGeometry x="1120" y="720" width="120" height="120" as="geometry" />
        </mxCell>
        <mxCell id="OgmGZcvQ5tUBhVQYUiQV-28" value="" style="edgeStyle=orthogonalEdgeStyle;rounded=0;orthogonalLoop=1;jettySize=auto;html=1;exitX=1;exitY=0.5;exitDx=0;exitDy=0;entryX=0;entryY=0.5;entryDx=0;entryDy=0;" edge="1" parent="1" source="OgmGZcvQ5tUBhVQYUiQV-23" target="OgmGZcvQ5tUBhVQYUiQV-27">
          <mxGeometry relative="1" as="geometry">
            <mxPoint x="1040" y="580" as="sourcePoint" />
            <mxPoint x="1120" y="700" as="targetPoint" />
          </mxGeometry>
        </mxCell>
        <mxCell id="OgmGZcvQ5tUBhVQYUiQV-27" value="Check Traffic conditions in other routes" style="rounded=0;whiteSpace=wrap;html=1;" vertex="1" parent="1">
          <mxGeometry x="1120" y="560" width="120" height="40" as="geometry" />
        </mxCell>
        <mxCell id="OgmGZcvQ5tUBhVQYUiQV-36" style="edgeStyle=orthogonalEdgeStyle;rounded=0;orthogonalLoop=1;jettySize=auto;html=1;exitX=0.5;exitY=1;exitDx=0;exitDy=0;entryX=0.5;entryY=0;entryDx=0;entryDy=0;" edge="1" parent="1" source="OgmGZcvQ5tUBhVQYUiQV-37" target="OgmGZcvQ5tUBhVQYUiQV-23">
          <mxGeometry relative="1" as="geometry">
            <Array as="points">
              <mxPoint x="1180" y="1040" />
              <mxPoint x="1280" y="1040" />
              <mxPoint x="1280" y="500" />
              <mxPoint x="980" y="500" />
            </Array>
          </mxGeometry>
        </mxCell>
        <mxCell id="OgmGZcvQ5tUBhVQYUiQV-40" value="" style="edgeStyle=orthogonalEdgeStyle;rounded=0;orthogonalLoop=1;jettySize=auto;html=1;" edge="1" parent="1" source="OgmGZcvQ5tUBhVQYUiQV-29" target="OgmGZcvQ5tUBhVQYUiQV-37">
          <mxGeometry relative="1" as="geometry" />
        </mxCell>
        <mxCell id="OgmGZcvQ5tUBhVQYUiQV-29" value="currentArrivalTime = newArrivalTime" style="rounded=0;whiteSpace=wrap;html=1;" vertex="1" parent="1">
          <mxGeometry x="1120" y="880" width="120" height="40" as="geometry" />
        </mxCell>
        <mxCell id="OgmGZcvQ5tUBhVQYUiQV-33" value="" style="edgeStyle=orthogonalEdgeStyle;rounded=0;orthogonalLoop=1;jettySize=auto;html=1;exitX=0.5;exitY=1;exitDx=0;exitDy=0;entryX=0.5;entryY=0;entryDx=0;entryDy=0;" edge="1" parent="1" source="OgmGZcvQ5tUBhVQYUiQV-27" target="OgmGZcvQ5tUBhVQYUiQV-32">
          <mxGeometry relative="1" as="geometry">
            <mxPoint x="1180" y="600" as="sourcePoint" />
            <mxPoint x="1180" y="770" as="targetPoint" />
          </mxGeometry>
        </mxCell>
        <mxCell id="OgmGZcvQ5tUBhVQYUiQV-32" value="Calculate newArrivalTime" style="rounded=0;whiteSpace=wrap;html=1;" vertex="1" parent="1">
          <mxGeometry x="1120" y="640" width="120" height="40" as="geometry" />
        </mxCell>
        <mxCell id="OgmGZcvQ5tUBhVQYUiQV-37" value="routeID = i" style="rounded=0;whiteSpace=wrap;html=1;" vertex="1" parent="1">
          <mxGeometry x="1120" y="960" width="120" height="40" as="geometry" />
        </mxCell>
        <mxCell id="EvU0aFzNsWuQUNdE5Zqm-2" value="" style="edgeStyle=orthogonalEdgeStyle;rounded=0;orthogonalLoop=1;jettySize=auto;html=1;entryX=0.5;entryY=0;entryDx=0;entryDy=0;exitX=0.16;exitY=1;exitDx=0;exitDy=0;exitPerimeter=0;" edge="1" parent="1" source="K7Aae5uCHcJbMM-F2qm3-39" target="EvU0aFzNsWuQUNdE5Zqm-1">
          <mxGeometry relative="1" as="geometry">
            <mxPoint x="-172.80000000000018" y="130" as="sourcePoint" />
            <mxPoint x="-20" y="401" as="targetPoint" />
            <Array as="points">
              <mxPoint x="-21" y="125" />
              <mxPoint x="-70" y="125" />
            </Array>
          </mxGeometry>
        </mxCell>
        <mxCell id="EvU0aFzNsWuQUNdE5Zqm-4" style="edgeStyle=orthogonalEdgeStyle;rounded=0;orthogonalLoop=1;jettySize=auto;html=1;exitX=0;exitY=0.5;exitDx=0;exitDy=0;entryX=0.5;entryY=0;entryDx=0;entryDy=0;" edge="1" parent="1" source="EvU0aFzNsWuQUNdE5Zqm-1" target="K7Aae5uCHcJbMM-F2qm3-43">
          <mxGeometry relative="1" as="geometry" />
        </mxCell>
        <mxCell id="EvU0aFzNsWuQUNdE5Zqm-10" style="edgeStyle=orthogonalEdgeStyle;rounded=0;orthogonalLoop=1;jettySize=auto;html=1;exitX=0.5;exitY=1;exitDx=0;exitDy=0;entryX=0.5;entryY=0;entryDx=0;entryDy=0;" edge="1" parent="1" source="EvU0aFzNsWuQUNdE5Zqm-1" target="EvU0aFzNsWuQUNdE5Zqm-5">
          <mxGeometry relative="1" as="geometry" />
        </mxCell>
        <mxCell id="EvU0aFzNsWuQUNdE5Zqm-16" value="end of list" style="edgeLabel;html=1;align=center;verticalAlign=middle;resizable=0;points=[];labelBackgroundColor=none;" vertex="1" connectable="0" parent="EvU0aFzNsWuQUNdE5Zqm-10">
          <mxGeometry x="-0.5905" y="3" relative="1" as="geometry">
            <mxPoint x="27" y="-7" as="offset" />
          </mxGeometry>
        </mxCell>
        <mxCell id="EvU0aFzNsWuQUNdE5Zqm-1" value="&lt;span style=&quot;color: rgb(0, 0, 0); font-family: Helvetica; font-size: 10px; font-style: normal; font-variant-ligatures: normal; font-variant-caps: normal; font-weight: 400; letter-spacing: normal; orphans: 2; text-align: left; text-indent: 0px; text-transform: none; widows: 2; word-spacing: 0px; -webkit-text-stroke-width: 0px; text-decoration-thickness: initial; text-decoration-style: initial; text-decoration-color: initial; float: none; display: inline !important;&quot;&gt;membersList&lt;/span&gt;" style="rhombus;whiteSpace=wrap;html=1;fillColor=default;fontSize=10;" vertex="1" parent="1">
          <mxGeometry x="-130" y="241" width="120" height="120" as="geometry" />
        </mxCell>
        <mxCell id="EvU0aFzNsWuQUNdE5Zqm-11" style="edgeStyle=orthogonalEdgeStyle;rounded=0;orthogonalLoop=1;jettySize=auto;html=1;exitX=0.5;exitY=1;exitDx=0;exitDy=0;entryX=0.5;entryY=0;entryDx=0;entryDy=0;" edge="1" parent="1" source="EvU0aFzNsWuQUNdE5Zqm-5" target="EvU0aFzNsWuQUNdE5Zqm-1">
          <mxGeometry relative="1" as="geometry">
            <Array as="points">
              <mxPoint x="-20" y="521" />
              <mxPoint x="80" y="521" />
              <mxPoint x="80" y="201" />
              <mxPoint x="-70" y="201" />
            </Array>
          </mxGeometry>
        </mxCell>
        <mxCell id="EvU0aFzNsWuQUNdE5Zqm-5" value="platoonStatus = True" style="rounded=0;whiteSpace=wrap;html=1;" vertex="1" parent="1">
          <mxGeometry x="-79.99999999999997" y="441" width="120" height="40" as="geometry" />
        </mxCell>
        <mxCell id="EvU0aFzNsWuQUNdE5Zqm-14" value="No" style="edgeStyle=orthogonalEdgeStyle;rounded=0;orthogonalLoop=1;jettySize=auto;html=1;exitX=0.5;exitY=1;exitDx=0;exitDy=0;entryX=0.5;entryY=0;entryDx=0;entryDy=0;labelBackgroundColor=none;" edge="1" parent="1" source="K7Aae5uCHcJbMM-F2qm3-43" target="EvU0aFzNsWuQUNdE5Zqm-13">
          <mxGeometry x="-0.25" y="-10" relative="1" as="geometry">
            <mxPoint x="-180" y="481" as="sourcePoint" />
            <mxPoint x="-180" y="561" as="targetPoint" />
            <mxPoint as="offset" />
          </mxGeometry>
        </mxCell>
        <mxCell id="EvU0aFzNsWuQUNdE5Zqm-15" style="edgeStyle=orthogonalEdgeStyle;rounded=0;orthogonalLoop=1;jettySize=auto;html=1;exitX=0.5;exitY=1;exitDx=0;exitDy=0;entryX=0.5;entryY=0;entryDx=0;entryDy=0;" edge="1" parent="1" source="EvU0aFzNsWuQUNdE5Zqm-13" target="K7Aae5uCHcJbMM-F2qm3-47">
          <mxGeometry relative="1" as="geometry" />
        </mxCell>
        <mxCell id="EvU0aFzNsWuQUNdE5Zqm-13" value="platoonStatus = False" style="rounded=0;whiteSpace=wrap;html=1;" vertex="1" parent="1">
          <mxGeometry x="-239.99999999999997" y="561" width="120" height="40" as="geometry" />
        </mxCell>
        <mxCell id="EvU0aFzNsWuQUNdE5Zqm-17" value="" style="ellipse;html=1;shape=endState;fillColor=#000000;strokeColor=default;" vertex="1" parent="1">
          <mxGeometry x="-200" y="920" width="40" height="40" as="geometry" />
        </mxCell>
        <mxCell id="EvU0aFzNsWuQUNdE5Zqm-19" value="" style="ellipse;html=1;shape=endState;fillColor=#000000;strokeColor=default;" vertex="1" parent="1">
          <mxGeometry x="760" y="920" width="40" height="40" as="geometry" />
        </mxCell>
        <mxCell id="XmAOfsIHqrRGqF3XLj49-3" style="edgeStyle=orthogonalEdgeStyle;rounded=0;orthogonalLoop=1;jettySize=auto;html=1;exitX=0.5;exitY=1;exitDx=0;exitDy=0;entryX=0.5;entryY=0;entryDx=0;entryDy=0;" edge="1" parent="1" source="XmAOfsIHqrRGqF3XLj49-1" target="XmAOfsIHqrRGqF3XLj49-2">
          <mxGeometry relative="1" as="geometry" />
        </mxCell>
        <mxCell id="XmAOfsIHqrRGqF3XLj49-1" value="Monitor Sensor Status" style="shape=process;whiteSpace=wrap;html=1;backgroundOutline=1;" vertex="1" parent="1">
          <mxGeometry x="1480" y="240" width="160" height="80" as="geometry" />
        </mxCell>
        <mxCell id="XmAOfsIHqrRGqF3XLj49-5" value="" style="edgeStyle=orthogonalEdgeStyle;rounded=0;orthogonalLoop=1;jettySize=auto;html=1;entryX=0.5;entryY=0;entryDx=0;entryDy=0;" edge="1" parent="1" source="XmAOfsIHqrRGqF3XLj49-2" target="XmAOfsIHqrRGqF3XLj49-6">
          <mxGeometry relative="1" as="geometry" />
        </mxCell>
        <mxCell id="XmAOfsIHqrRGqF3XLj49-17" value="Yes" style="edgeLabel;html=1;align=center;verticalAlign=middle;resizable=0;points=[];labelBackgroundColor=none;" vertex="1" connectable="0" parent="XmAOfsIHqrRGqF3XLj49-5">
          <mxGeometry x="-0.7804" y="-1" relative="1" as="geometry">
            <mxPoint x="11" y="16" as="offset" />
          </mxGeometry>
        </mxCell>
        <mxCell id="XmAOfsIHqrRGqF3XLj49-16" value="No" style="edgeStyle=orthogonalEdgeStyle;rounded=0;orthogonalLoop=1;jettySize=auto;html=1;exitX=1;exitY=0.5;exitDx=0;exitDy=0;entryX=0.5;entryY=0;entryDx=0;entryDy=0;labelBackgroundColor=none;" edge="1" parent="1" source="XmAOfsIHqrRGqF3XLj49-2" target="XmAOfsIHqrRGqF3XLj49-8">
          <mxGeometry x="-0.9" y="10" relative="1" as="geometry">
            <Array as="points">
              <mxPoint x="1680" y="420" />
              <mxPoint x="1680" y="800" />
            </Array>
            <mxPoint as="offset" />
          </mxGeometry>
        </mxCell>
        <mxCell id="XmAOfsIHqrRGqF3XLj49-2" value="sensorStatus == True" style="rhombus;whiteSpace=wrap;html=1;fillColor=default;fontSize=10;" vertex="1" parent="1">
          <mxGeometry x="1500" y="360" width="120" height="120" as="geometry" />
        </mxCell>
        <mxCell id="XmAOfsIHqrRGqF3XLj49-12" style="edgeStyle=orthogonalEdgeStyle;rounded=0;orthogonalLoop=1;jettySize=auto;html=1;exitX=0;exitY=0.5;exitDx=0;exitDy=0;" edge="1" parent="1" source="XmAOfsIHqrRGqF3XLj49-4">
          <mxGeometry relative="1" as="geometry">
            <mxPoint x="1480" y="280" as="targetPoint" />
            <Array as="points">
              <mxPoint x="1440" y="700" />
              <mxPoint x="1440" y="280" />
            </Array>
          </mxGeometry>
        </mxCell>
        <mxCell id="XmAOfsIHqrRGqF3XLj49-14" value="Yes" style="edgeLabel;html=1;align=center;verticalAlign=middle;resizable=0;points=[];labelBackgroundColor=none;" vertex="1" connectable="0" parent="XmAOfsIHqrRGqF3XLj49-12">
          <mxGeometry x="-0.9236" y="-1" relative="1" as="geometry">
            <mxPoint x="-10" y="-9" as="offset" />
          </mxGeometry>
        </mxCell>
        <mxCell id="XmAOfsIHqrRGqF3XLj49-15" value="No" style="edgeStyle=orthogonalEdgeStyle;rounded=0;orthogonalLoop=1;jettySize=auto;html=1;exitX=0.5;exitY=1;exitDx=0;exitDy=0;entryX=0.5;entryY=0;entryDx=0;entryDy=0;labelBackgroundColor=none;" edge="1" parent="1" source="XmAOfsIHqrRGqF3XLj49-4" target="XmAOfsIHqrRGqF3XLj49-8">
          <mxGeometry x="-0.5" y="-10" relative="1" as="geometry">
            <mxPoint as="offset" />
          </mxGeometry>
        </mxCell>
        <mxCell id="XmAOfsIHqrRGqF3XLj49-4" value="actuatorStatus == True" style="rhombus;whiteSpace=wrap;html=1;fillColor=default;fontSize=10;" vertex="1" parent="1">
          <mxGeometry x="1500" y="640" width="120" height="120" as="geometry" />
        </mxCell>
        <mxCell id="XmAOfsIHqrRGqF3XLj49-6" value="Monitor Actuator Status" style="shape=process;whiteSpace=wrap;html=1;backgroundOutline=1;" vertex="1" parent="1">
          <mxGeometry x="1480" y="520" width="160" height="80" as="geometry" />
        </mxCell>
        <mxCell id="XmAOfsIHqrRGqF3XLj49-7" style="edgeStyle=orthogonalEdgeStyle;rounded=0;orthogonalLoop=1;jettySize=auto;html=1;exitX=0.5;exitY=1;exitDx=0;exitDy=0;entryX=0.5;entryY=0;entryDx=0;entryDy=0;" edge="1" parent="1" source="XmAOfsIHqrRGqF3XLj49-8" target="XmAOfsIHqrRGqF3XLj49-9">
          <mxGeometry relative="1" as="geometry" />
        </mxCell>
        <mxCell id="XmAOfsIHqrRGqF3XLj49-8" value="Return&lt;br&gt;malfunction == True" style="rounded=1;whiteSpace=wrap;html=1;" vertex="1" parent="1">
          <mxGeometry x="1480" y="840" width="160" height="40" as="geometry" />
        </mxCell>
        <mxCell id="XmAOfsIHqrRGqF3XLj49-9" value="" style="ellipse;html=1;shape=endState;fillColor=#000000;strokeColor=default;" vertex="1" parent="1">
          <mxGeometry x="1540" y="920" width="40" height="40" as="geometry" />
        </mxCell>
      </root>
    </mxGraphModel>
  </diagram>
  <diagram id="neCLOYXZGATYA1yEeCmO" name="Sensors Status">
    <mxGraphModel dx="607" dy="775" grid="1" gridSize="10" guides="1" tooltips="1" connect="1" arrows="1" fold="1" page="1" pageScale="1" pageWidth="827" pageHeight="1169" math="0" shadow="0">
      <root>
        <mxCell id="0" />
        <mxCell id="1" parent="0" />
        <mxCell id="NHfLMiuDDfMkfR37HxMI-3" value="Yes" style="edgeStyle=orthogonalEdgeStyle;rounded=0;orthogonalLoop=1;jettySize=auto;html=1;" edge="1" parent="1" source="aa3TxdAfQoS7vpW2UvN7-1" target="aa3TxdAfQoS7vpW2UvN7-2">
          <mxGeometry relative="1" as="geometry" />
        </mxCell>
        <mxCell id="AV3RVee2uWeelUaF4DOC-3" style="edgeStyle=orthogonalEdgeStyle;rounded=0;orthogonalLoop=1;jettySize=auto;html=1;exitX=1;exitY=0.5;exitDx=0;exitDy=0;entryX=0.5;entryY=0;entryDx=0;entryDy=0;" edge="1" parent="1" source="aa3TxdAfQoS7vpW2UvN7-1" target="AV3RVee2uWeelUaF4DOC-2">
          <mxGeometry relative="1" as="geometry" />
        </mxCell>
        <mxCell id="AV3RVee2uWeelUaF4DOC-11" value="No" style="edgeLabel;html=1;align=center;verticalAlign=middle;resizable=0;points=[];" vertex="1" connectable="0" parent="AV3RVee2uWeelUaF4DOC-3">
          <mxGeometry x="-0.8954" relative="1" as="geometry">
            <mxPoint x="-9" as="offset" />
          </mxGeometry>
        </mxCell>
        <mxCell id="aa3TxdAfQoS7vpW2UvN7-1" value="&lt;span style=&quot;color: rgb(0, 0, 0); font-family: Helvetica; font-size: 10px; font-style: normal; font-variant-ligatures: normal; font-variant-caps: normal; font-weight: 400; letter-spacing: normal; orphans: 2; text-align: left; text-indent: 0px; text-transform: none; widows: 2; word-spacing: 0px; -webkit-text-stroke-width: 0px; text-decoration-thickness: initial; text-decoration-style: initial; text-decoration-color: initial; float: none; display: inline !important;&quot;&gt;cameraStatus&lt;br&gt;== True&lt;/span&gt;" style="rhombus;whiteSpace=wrap;html=1;fillColor=default;fontSize=10;" vertex="1" parent="1">
          <mxGeometry x="1160" y="120" width="120" height="120" as="geometry" />
        </mxCell>
        <mxCell id="NHfLMiuDDfMkfR37HxMI-4" value="Yes" style="edgeStyle=orthogonalEdgeStyle;rounded=0;orthogonalLoop=1;jettySize=auto;html=1;" edge="1" parent="1" source="aa3TxdAfQoS7vpW2UvN7-2" target="aa3TxdAfQoS7vpW2UvN7-3">
          <mxGeometry relative="1" as="geometry" />
        </mxCell>
        <mxCell id="AV3RVee2uWeelUaF4DOC-4" style="edgeStyle=orthogonalEdgeStyle;rounded=0;orthogonalLoop=1;jettySize=auto;html=1;exitX=1;exitY=0.5;exitDx=0;exitDy=0;entryX=0.5;entryY=0;entryDx=0;entryDy=0;" edge="1" parent="1" source="aa3TxdAfQoS7vpW2UvN7-2" target="AV3RVee2uWeelUaF4DOC-2">
          <mxGeometry relative="1" as="geometry">
            <mxPoint x="1520" y="880" as="targetPoint" />
          </mxGeometry>
        </mxCell>
        <mxCell id="AV3RVee2uWeelUaF4DOC-12" value="No" style="edgeLabel;html=1;align=center;verticalAlign=middle;resizable=0;points=[];" vertex="1" connectable="0" parent="AV3RVee2uWeelUaF4DOC-4">
          <mxGeometry x="-0.8741" y="2" relative="1" as="geometry">
            <mxPoint x="-11" y="2" as="offset" />
          </mxGeometry>
        </mxCell>
        <mxCell id="aa3TxdAfQoS7vpW2UvN7-2" value="&lt;span style=&quot;color: rgb(0, 0, 0); font-family: Helvetica; font-size: 10px; font-style: normal; font-variant-ligatures: normal; font-variant-caps: normal; font-weight: 400; letter-spacing: normal; orphans: 2; text-align: left; text-indent: 0px; text-transform: none; widows: 2; word-spacing: 0px; -webkit-text-stroke-width: 0px; text-decoration-thickness: initial; text-decoration-style: initial; text-decoration-color: initial; float: none; display: inline !important;&quot;&gt;lidarStatus&lt;br&gt;== True&lt;/span&gt;" style="rhombus;whiteSpace=wrap;html=1;fillColor=default;fontSize=10;" vertex="1" parent="1">
          <mxGeometry x="1160" y="280" width="120" height="120" as="geometry" />
        </mxCell>
        <mxCell id="NHfLMiuDDfMkfR37HxMI-5" value="Yes" style="edgeStyle=orthogonalEdgeStyle;rounded=0;orthogonalLoop=1;jettySize=auto;html=1;" edge="1" parent="1" source="aa3TxdAfQoS7vpW2UvN7-3" target="aa3TxdAfQoS7vpW2UvN7-4">
          <mxGeometry relative="1" as="geometry" />
        </mxCell>
        <mxCell id="AV3RVee2uWeelUaF4DOC-8" style="edgeStyle=orthogonalEdgeStyle;rounded=0;orthogonalLoop=1;jettySize=auto;html=1;exitX=1;exitY=0.5;exitDx=0;exitDy=0;" edge="1" parent="1" source="aa3TxdAfQoS7vpW2UvN7-3">
          <mxGeometry relative="1" as="geometry">
            <mxPoint x="1519.9999999999998" y="1080" as="targetPoint" />
          </mxGeometry>
        </mxCell>
        <mxCell id="AV3RVee2uWeelUaF4DOC-13" value="No" style="edgeLabel;html=1;align=center;verticalAlign=middle;resizable=0;points=[];" vertex="1" connectable="0" parent="AV3RVee2uWeelUaF4DOC-8">
          <mxGeometry x="-0.858" y="2" relative="1" as="geometry">
            <mxPoint x="-8" y="2" as="offset" />
          </mxGeometry>
        </mxCell>
        <mxCell id="aa3TxdAfQoS7vpW2UvN7-3" value="&lt;span style=&quot;color: rgb(0, 0, 0); font-family: Helvetica; font-size: 10px; font-style: normal; font-variant-ligatures: normal; font-variant-caps: normal; font-weight: 400; letter-spacing: normal; orphans: 2; text-align: left; text-indent: 0px; text-transform: none; widows: 2; word-spacing: 0px; -webkit-text-stroke-width: 0px; text-decoration-thickness: initial; text-decoration-style: initial; text-decoration-color: initial; float: none; display: inline !important;&quot;&gt;usonarStatus&lt;br&gt;== True&lt;/span&gt;" style="rhombus;whiteSpace=wrap;html=1;fillColor=default;fontSize=10;" vertex="1" parent="1">
          <mxGeometry x="1160" y="440" width="120" height="120" as="geometry" />
        </mxCell>
        <mxCell id="NHfLMiuDDfMkfR37HxMI-6" value="&lt;span style=&quot;color: rgb(0, 0, 0); font-family: Helvetica; font-size: 11px; font-style: normal; font-variant-ligatures: normal; font-variant-caps: normal; font-weight: 400; letter-spacing: normal; orphans: 2; text-align: center; text-indent: 0px; text-transform: none; widows: 2; word-spacing: 0px; -webkit-text-stroke-width: 0px; background-color: rgb(255, 255, 255); text-decoration-thickness: initial; text-decoration-style: initial; text-decoration-color: initial; float: none; display: inline !important;&quot;&gt;Yes&lt;/span&gt;" style="edgeStyle=orthogonalEdgeStyle;rounded=0;orthogonalLoop=1;jettySize=auto;html=1;" edge="1" parent="1" source="aa3TxdAfQoS7vpW2UvN7-4" target="aa3TxdAfQoS7vpW2UvN7-5">
          <mxGeometry relative="1" as="geometry" />
        </mxCell>
        <mxCell id="AV3RVee2uWeelUaF4DOC-7" style="edgeStyle=orthogonalEdgeStyle;rounded=0;orthogonalLoop=1;jettySize=auto;html=1;exitX=1;exitY=0.5;exitDx=0;exitDy=0;" edge="1" parent="1" source="aa3TxdAfQoS7vpW2UvN7-4">
          <mxGeometry relative="1" as="geometry">
            <mxPoint x="1519.9999999999998" y="1080" as="targetPoint" />
          </mxGeometry>
        </mxCell>
        <mxCell id="AV3RVee2uWeelUaF4DOC-14" value="No" style="edgeLabel;html=1;align=center;verticalAlign=middle;resizable=0;points=[];" vertex="1" connectable="0" parent="AV3RVee2uWeelUaF4DOC-7">
          <mxGeometry x="-0.855" y="1" relative="1" as="geometry">
            <mxPoint as="offset" />
          </mxGeometry>
        </mxCell>
        <mxCell id="aa3TxdAfQoS7vpW2UvN7-4" value="&lt;span style=&quot;color: rgb(0, 0, 0); font-family: Helvetica; font-size: 10px; font-style: normal; font-variant-ligatures: normal; font-variant-caps: normal; font-weight: 400; letter-spacing: normal; orphans: 2; text-align: left; text-indent: 0px; text-transform: none; widows: 2; word-spacing: 0px; -webkit-text-stroke-width: 0px; text-decoration-thickness: initial; text-decoration-style: initial; text-decoration-color: initial; float: none; display: inline !important;&quot;&gt;wheelSensorStatus&lt;br&gt;== True&lt;/span&gt;" style="rhombus;whiteSpace=wrap;html=1;fillColor=default;fontSize=10;" vertex="1" parent="1">
          <mxGeometry x="1160" y="600" width="120" height="120" as="geometry" />
        </mxCell>
        <mxCell id="NHfLMiuDDfMkfR37HxMI-7" value="&lt;span style=&quot;color: rgb(0, 0, 0); font-family: Helvetica; font-size: 11px; font-style: normal; font-variant-ligatures: normal; font-variant-caps: normal; font-weight: 400; letter-spacing: normal; orphans: 2; text-align: center; text-indent: 0px; text-transform: none; widows: 2; word-spacing: 0px; -webkit-text-stroke-width: 0px; background-color: rgb(255, 255, 255); text-decoration-thickness: initial; text-decoration-style: initial; text-decoration-color: initial; float: none; display: inline !important;&quot;&gt;Yes&lt;/span&gt;" style="edgeStyle=orthogonalEdgeStyle;rounded=0;orthogonalLoop=1;jettySize=auto;html=1;" edge="1" parent="1" source="aa3TxdAfQoS7vpW2UvN7-5" target="aa3TxdAfQoS7vpW2UvN7-6">
          <mxGeometry relative="1" as="geometry" />
        </mxCell>
        <mxCell id="AV3RVee2uWeelUaF4DOC-6" style="edgeStyle=orthogonalEdgeStyle;rounded=0;orthogonalLoop=1;jettySize=auto;html=1;exitX=1;exitY=0.5;exitDx=0;exitDy=0;" edge="1" parent="1" source="aa3TxdAfQoS7vpW2UvN7-5">
          <mxGeometry relative="1" as="geometry">
            <mxPoint x="1519.9999999999998" y="1080" as="targetPoint" />
          </mxGeometry>
        </mxCell>
        <mxCell id="AV3RVee2uWeelUaF4DOC-15" value="No" style="edgeLabel;html=1;align=center;verticalAlign=middle;resizable=0;points=[];" vertex="1" connectable="0" parent="AV3RVee2uWeelUaF4DOC-6">
          <mxGeometry x="-0.8003" relative="1" as="geometry">
            <mxPoint as="offset" />
          </mxGeometry>
        </mxCell>
        <mxCell id="aa3TxdAfQoS7vpW2UvN7-5" value="&lt;span style=&quot;color: rgb(0, 0, 0); font-family: Helvetica; font-size: 10px; font-style: normal; font-variant-ligatures: normal; font-variant-caps: normal; font-weight: 400; letter-spacing: normal; orphans: 2; text-align: left; text-indent: 0px; text-transform: none; widows: 2; word-spacing: 0px; -webkit-text-stroke-width: 0px; text-decoration-thickness: initial; text-decoration-style: initial; text-decoration-color: initial; float: none; display: inline !important;&quot;&gt;steeringSensorStatus&lt;br&gt;== True&lt;/span&gt;" style="rhombus;whiteSpace=wrap;html=1;fillColor=default;fontSize=10;" vertex="1" parent="1">
          <mxGeometry x="1160" y="760" width="120" height="120" as="geometry" />
        </mxCell>
        <mxCell id="AV3RVee2uWeelUaF4DOC-5" style="edgeStyle=orthogonalEdgeStyle;rounded=0;orthogonalLoop=1;jettySize=auto;html=1;exitX=1;exitY=0.5;exitDx=0;exitDy=0;entryX=0.5;entryY=0;entryDx=0;entryDy=0;" edge="1" parent="1" source="aa3TxdAfQoS7vpW2UvN7-6" target="AV3RVee2uWeelUaF4DOC-2">
          <mxGeometry relative="1" as="geometry" />
        </mxCell>
        <mxCell id="AV3RVee2uWeelUaF4DOC-16" value="No" style="edgeLabel;html=1;align=center;verticalAlign=middle;resizable=0;points=[];" vertex="1" connectable="0" parent="AV3RVee2uWeelUaF4DOC-5">
          <mxGeometry x="-0.6574" y="2" relative="1" as="geometry">
            <mxPoint x="-8" y="2" as="offset" />
          </mxGeometry>
        </mxCell>
        <mxCell id="AV3RVee2uWeelUaF4DOC-10" value="&lt;span style=&quot;color: rgb(0, 0, 0); font-family: Helvetica; font-size: 11px; font-style: normal; font-variant-ligatures: normal; font-variant-caps: normal; font-weight: 400; letter-spacing: normal; orphans: 2; text-align: center; text-indent: 0px; text-transform: none; widows: 2; word-spacing: 0px; -webkit-text-stroke-width: 0px; background-color: rgb(255, 255, 255); text-decoration-thickness: initial; text-decoration-style: initial; text-decoration-color: initial; float: none; display: inline !important;&quot;&gt;Yes&lt;/span&gt;" style="edgeStyle=orthogonalEdgeStyle;rounded=0;orthogonalLoop=1;jettySize=auto;html=1;" edge="1" parent="1" source="aa3TxdAfQoS7vpW2UvN7-6" target="AV3RVee2uWeelUaF4DOC-1">
          <mxGeometry relative="1" as="geometry" />
        </mxCell>
        <mxCell id="aa3TxdAfQoS7vpW2UvN7-6" value="&lt;span style=&quot;color: rgb(0, 0, 0); font-family: Helvetica; font-size: 10px; font-style: normal; font-variant-ligatures: normal; font-variant-caps: normal; font-weight: 400; letter-spacing: normal; orphans: 2; text-align: left; text-indent: 0px; text-transform: none; widows: 2; word-spacing: 0px; -webkit-text-stroke-width: 0px; text-decoration-thickness: initial; text-decoration-style: initial; text-decoration-color: initial; float: none; display: inline !important;&quot;&gt;tirePSensorStatus &lt;br&gt;== True&lt;/span&gt;" style="rhombus;whiteSpace=wrap;html=1;fillColor=default;fontSize=10;" vertex="1" parent="1">
          <mxGeometry x="1160" y="920" width="120" height="120" as="geometry" />
        </mxCell>
        <mxCell id="NHfLMiuDDfMkfR37HxMI-2" value="" style="edgeStyle=orthogonalEdgeStyle;rounded=0;orthogonalLoop=1;jettySize=auto;html=1;" edge="1" parent="1" source="NHfLMiuDDfMkfR37HxMI-1" target="aa3TxdAfQoS7vpW2UvN7-1">
          <mxGeometry relative="1" as="geometry" />
        </mxCell>
        <mxCell id="NHfLMiuDDfMkfR37HxMI-1" value="" style="ellipse;html=1;shape=startState;fillColor=#000000;strokeColor=default;" vertex="1" parent="1">
          <mxGeometry x="1200" y="40" width="40" height="40" as="geometry" />
        </mxCell>
        <mxCell id="AV3RVee2uWeelUaF4DOC-1" value="Return&lt;br&gt;sensorStatus == True" style="rounded=1;whiteSpace=wrap;html=1;" vertex="1" parent="1">
          <mxGeometry x="1140" y="1080" width="160" height="40" as="geometry" />
        </mxCell>
        <mxCell id="AV3RVee2uWeelUaF4DOC-2" value="Return&lt;br&gt;sensorStatus == False" style="rounded=1;whiteSpace=wrap;html=1;" vertex="1" parent="1">
          <mxGeometry x="1440" y="1080" width="160" height="40" as="geometry" />
        </mxCell>
      </root>
    </mxGraphModel>
  </diagram>
  <diagram name="Actuators Status" id="7O2cfY_9wr-XDAlcmTbG">
    <mxGraphModel dx="860" dy="912" grid="1" gridSize="10" guides="1" tooltips="1" connect="1" arrows="1" fold="1" page="1" pageScale="1" pageWidth="827" pageHeight="1169" math="0" shadow="0">
      <root>
        <mxCell id="4EsSTNDRhjrruU7yqmyk-0" />
        <mxCell id="4EsSTNDRhjrruU7yqmyk-1" parent="4EsSTNDRhjrruU7yqmyk-0" />
        <mxCell id="4EsSTNDRhjrruU7yqmyk-2" value="Yes" style="edgeStyle=orthogonalEdgeStyle;rounded=0;orthogonalLoop=1;jettySize=auto;html=1;" edge="1" parent="4EsSTNDRhjrruU7yqmyk-1" source="4EsSTNDRhjrruU7yqmyk-5" target="4EsSTNDRhjrruU7yqmyk-9">
          <mxGeometry relative="1" as="geometry" />
        </mxCell>
        <mxCell id="4EsSTNDRhjrruU7yqmyk-3" style="edgeStyle=orthogonalEdgeStyle;rounded=0;orthogonalLoop=1;jettySize=auto;html=1;exitX=1;exitY=0.5;exitDx=0;exitDy=0;entryX=0.5;entryY=0;entryDx=0;entryDy=0;" edge="1" parent="4EsSTNDRhjrruU7yqmyk-1" source="4EsSTNDRhjrruU7yqmyk-5" target="4EsSTNDRhjrruU7yqmyk-29">
          <mxGeometry relative="1" as="geometry" />
        </mxCell>
        <mxCell id="4EsSTNDRhjrruU7yqmyk-4" value="No" style="edgeLabel;html=1;align=center;verticalAlign=middle;resizable=0;points=[];" vertex="1" connectable="0" parent="4EsSTNDRhjrruU7yqmyk-3">
          <mxGeometry x="-0.8954" relative="1" as="geometry">
            <mxPoint x="-9" as="offset" />
          </mxGeometry>
        </mxCell>
        <mxCell id="4EsSTNDRhjrruU7yqmyk-5" value="&lt;span style=&quot;color: rgb(0, 0, 0); font-family: Helvetica; font-size: 10px; font-style: normal; font-variant-ligatures: normal; font-variant-caps: normal; font-weight: 400; letter-spacing: normal; orphans: 2; text-align: left; text-indent: 0px; text-transform: none; widows: 2; word-spacing: 0px; -webkit-text-stroke-width: 0px; text-decoration-thickness: initial; text-decoration-style: initial; text-decoration-color: initial; float: none; display: inline !important;&quot;&gt;steeringStatus&lt;br&gt;== True&lt;/span&gt;" style="rhombus;whiteSpace=wrap;html=1;fillColor=default;fontSize=10;" vertex="1" parent="4EsSTNDRhjrruU7yqmyk-1">
          <mxGeometry x="1120" y="160" width="120" height="120" as="geometry" />
        </mxCell>
        <mxCell id="4EsSTNDRhjrruU7yqmyk-6" value="Yes" style="edgeStyle=orthogonalEdgeStyle;rounded=0;orthogonalLoop=1;jettySize=auto;html=1;" edge="1" parent="4EsSTNDRhjrruU7yqmyk-1" source="4EsSTNDRhjrruU7yqmyk-9" target="4EsSTNDRhjrruU7yqmyk-13">
          <mxGeometry relative="1" as="geometry" />
        </mxCell>
        <mxCell id="4EsSTNDRhjrruU7yqmyk-7" style="edgeStyle=orthogonalEdgeStyle;rounded=0;orthogonalLoop=1;jettySize=auto;html=1;exitX=1;exitY=0.5;exitDx=0;exitDy=0;entryX=0.5;entryY=0;entryDx=0;entryDy=0;" edge="1" parent="4EsSTNDRhjrruU7yqmyk-1" source="4EsSTNDRhjrruU7yqmyk-9" target="4EsSTNDRhjrruU7yqmyk-29">
          <mxGeometry relative="1" as="geometry">
            <mxPoint x="1480" y="920" as="targetPoint" />
          </mxGeometry>
        </mxCell>
        <mxCell id="4EsSTNDRhjrruU7yqmyk-8" value="No" style="edgeLabel;html=1;align=center;verticalAlign=middle;resizable=0;points=[];" vertex="1" connectable="0" parent="4EsSTNDRhjrruU7yqmyk-7">
          <mxGeometry x="-0.8741" y="2" relative="1" as="geometry">
            <mxPoint x="-11" y="2" as="offset" />
          </mxGeometry>
        </mxCell>
        <mxCell id="4EsSTNDRhjrruU7yqmyk-9" value="&lt;span style=&quot;color: rgb(0, 0, 0); font-family: Helvetica; font-size: 10px; font-style: normal; font-variant-ligatures: normal; font-variant-caps: normal; font-weight: 400; letter-spacing: normal; orphans: 2; text-align: left; text-indent: 0px; text-transform: none; widows: 2; word-spacing: 0px; -webkit-text-stroke-width: 0px; text-decoration-thickness: initial; text-decoration-style: initial; text-decoration-color: initial; float: none; display: inline !important;&quot;&gt;brakingStatus&lt;br&gt;== True&lt;/span&gt;" style="rhombus;whiteSpace=wrap;html=1;fillColor=default;fontSize=10;" vertex="1" parent="4EsSTNDRhjrruU7yqmyk-1">
          <mxGeometry x="1120" y="320" width="120" height="120" as="geometry" />
        </mxCell>
        <mxCell id="4EsSTNDRhjrruU7yqmyk-10" value="Yes" style="edgeStyle=orthogonalEdgeStyle;rounded=0;orthogonalLoop=1;jettySize=auto;html=1;entryX=0.5;entryY=0;entryDx=0;entryDy=0;" edge="1" parent="4EsSTNDRhjrruU7yqmyk-1" source="4EsSTNDRhjrruU7yqmyk-13" target="4EsSTNDRhjrruU7yqmyk-28">
          <mxGeometry relative="1" as="geometry">
            <mxPoint x="1180" y="640" as="targetPoint" />
          </mxGeometry>
        </mxCell>
        <mxCell id="4EsSTNDRhjrruU7yqmyk-11" style="edgeStyle=orthogonalEdgeStyle;rounded=0;orthogonalLoop=1;jettySize=auto;html=1;exitX=1;exitY=0.5;exitDx=0;exitDy=0;entryX=0.5;entryY=0;entryDx=0;entryDy=0;" edge="1" parent="4EsSTNDRhjrruU7yqmyk-1" source="4EsSTNDRhjrruU7yqmyk-13" target="4EsSTNDRhjrruU7yqmyk-29">
          <mxGeometry relative="1" as="geometry">
            <mxPoint x="1479.9999999999998" y="1120" as="targetPoint" />
          </mxGeometry>
        </mxCell>
        <mxCell id="4EsSTNDRhjrruU7yqmyk-12" value="No" style="edgeLabel;html=1;align=center;verticalAlign=middle;resizable=0;points=[];" vertex="1" connectable="0" parent="4EsSTNDRhjrruU7yqmyk-11">
          <mxGeometry x="-0.858" y="2" relative="1" as="geometry">
            <mxPoint x="-8" y="2" as="offset" />
          </mxGeometry>
        </mxCell>
        <mxCell id="4EsSTNDRhjrruU7yqmyk-13" value="&lt;span style=&quot;color: rgb(0, 0, 0); font-family: Helvetica; font-size: 10px; font-style: normal; font-variant-ligatures: normal; font-variant-caps: normal; font-weight: 400; letter-spacing: normal; orphans: 2; text-align: left; text-indent: 0px; text-transform: none; widows: 2; word-spacing: 0px; -webkit-text-stroke-width: 0px; text-decoration-thickness: initial; text-decoration-style: initial; text-decoration-color: initial; float: none; display: inline !important;&quot;&gt;powertrainStatus&lt;br&gt;== True&lt;/span&gt;" style="rhombus;whiteSpace=wrap;html=1;fillColor=default;fontSize=10;" vertex="1" parent="4EsSTNDRhjrruU7yqmyk-1">
          <mxGeometry x="1120" y="480" width="120" height="120" as="geometry" />
        </mxCell>
        <mxCell id="4EsSTNDRhjrruU7yqmyk-26" value="" style="edgeStyle=orthogonalEdgeStyle;rounded=0;orthogonalLoop=1;jettySize=auto;html=1;" edge="1" parent="4EsSTNDRhjrruU7yqmyk-1" source="4EsSTNDRhjrruU7yqmyk-27" target="4EsSTNDRhjrruU7yqmyk-5">
          <mxGeometry relative="1" as="geometry" />
        </mxCell>
        <mxCell id="4EsSTNDRhjrruU7yqmyk-27" value="" style="ellipse;html=1;shape=startState;fillColor=#000000;strokeColor=default;" vertex="1" parent="4EsSTNDRhjrruU7yqmyk-1">
          <mxGeometry x="1160" y="80" width="40" height="40" as="geometry" />
        </mxCell>
        <mxCell id="4EsSTNDRhjrruU7yqmyk-28" value="Return&lt;br&gt;actuatorStatus&amp;nbsp;== True" style="rounded=1;whiteSpace=wrap;html=1;" vertex="1" parent="4EsSTNDRhjrruU7yqmyk-1">
          <mxGeometry x="1100" y="680" width="160" height="40" as="geometry" />
        </mxCell>
        <mxCell id="4EsSTNDRhjrruU7yqmyk-29" value="Return&lt;br&gt;actuatorStatus&amp;nbsp;== False" style="rounded=1;whiteSpace=wrap;html=1;" vertex="1" parent="4EsSTNDRhjrruU7yqmyk-1">
          <mxGeometry x="1400" y="680" width="160" height="40" as="geometry" />
        </mxCell>
      </root>
    </mxGraphModel>
  </diagram>
  <diagram id="1GeEqlg3R2ygO4wF9HdQ" name="Página-5">
    <mxGraphModel dx="1434" dy="714" grid="1" gridSize="10" guides="1" tooltips="1" connect="1" arrows="1" fold="1" page="1" pageScale="1" pageWidth="827" pageHeight="1169" math="0" shadow="0">
      <root>
        <mxCell id="0" />
        <mxCell id="1" parent="0" />
        <mxCell id="75G5733rcRjuY9G1SH0R-13" style="edgeStyle=orthogonalEdgeStyle;rounded=0;orthogonalLoop=1;jettySize=auto;html=1;exitX=0.08;exitY=0.9;exitDx=0;exitDy=0;exitPerimeter=0;entryX=0.5;entryY=0;entryDx=0;entryDy=0;" edge="1" parent="1" source="_-ETWRvwGzVZ8Kp8he9H-1" target="_-ETWRvwGzVZ8Kp8he9H-3">
          <mxGeometry relative="1" as="geometry">
            <Array as="points">
              <mxPoint x="220" y="129" />
            </Array>
          </mxGeometry>
        </mxCell>
        <mxCell id="75G5733rcRjuY9G1SH0R-14" style="edgeStyle=orthogonalEdgeStyle;rounded=0;orthogonalLoop=1;jettySize=auto;html=1;exitX=0.16;exitY=1;exitDx=0;exitDy=1;exitPerimeter=0;entryX=0.5;entryY=0;entryDx=0;entryDy=0;" edge="1" parent="1" source="_-ETWRvwGzVZ8Kp8he9H-1" target="_-ETWRvwGzVZ8Kp8he9H-6">
          <mxGeometry relative="1" as="geometry">
            <Array as="points">
              <mxPoint x="408" y="130" />
              <mxPoint x="420" y="130" />
            </Array>
          </mxGeometry>
        </mxCell>
        <mxCell id="75G5733rcRjuY9G1SH0R-15" style="edgeStyle=orthogonalEdgeStyle;rounded=0;orthogonalLoop=1;jettySize=auto;html=1;exitX=0.25;exitY=1;exitDx=0;exitDy=1;exitPerimeter=0;entryX=0.5;entryY=0;entryDx=0;entryDy=0;" edge="1" parent="1" source="_-ETWRvwGzVZ8Kp8he9H-1" target="_-ETWRvwGzVZ8Kp8he9H-9">
          <mxGeometry relative="1" as="geometry">
            <Array as="points">
              <mxPoint x="570" y="130" />
              <mxPoint x="620" y="130" />
            </Array>
          </mxGeometry>
        </mxCell>
        <mxCell id="75G5733rcRjuY9G1SH0R-16" style="edgeStyle=orthogonalEdgeStyle;rounded=0;orthogonalLoop=1;jettySize=auto;html=1;exitX=0.36;exitY=1;exitDx=0;exitDy=1;exitPerimeter=0;entryX=0.5;entryY=0;entryDx=0;entryDy=0;" edge="1" parent="1" source="_-ETWRvwGzVZ8Kp8he9H-1" target="_-ETWRvwGzVZ8Kp8he9H-12">
          <mxGeometry relative="1" as="geometry">
            <Array as="points">
              <mxPoint x="768" y="130" />
              <mxPoint x="820" y="130" />
            </Array>
          </mxGeometry>
        </mxCell>
        <mxCell id="75G5733rcRjuY9G1SH0R-17" style="edgeStyle=orthogonalEdgeStyle;rounded=0;orthogonalLoop=1;jettySize=auto;html=1;exitX=0.43;exitY=1;exitDx=0;exitDy=0;exitPerimeter=0;entryX=0.5;entryY=0;entryDx=0;entryDy=0;" edge="1" parent="1" source="_-ETWRvwGzVZ8Kp8he9H-1" target="Mk3yW9NYiBY1qTwdTPgu-2">
          <mxGeometry relative="1" as="geometry">
            <Array as="points">
              <mxPoint x="1010" y="130" />
            </Array>
          </mxGeometry>
        </mxCell>
        <mxCell id="75G5733rcRjuY9G1SH0R-18" style="edgeStyle=orthogonalEdgeStyle;rounded=0;orthogonalLoop=1;jettySize=auto;html=1;exitX=0.92;exitY=1;exitDx=0;exitDy=0;exitPerimeter=0;entryX=0.5;entryY=0;entryDx=0;entryDy=0;" edge="1" parent="1" source="_-ETWRvwGzVZ8Kp8he9H-1" target="75G5733rcRjuY9G1SH0R-11">
          <mxGeometry relative="1" as="geometry">
            <Array as="points">
              <mxPoint x="1820" y="130" />
              <mxPoint x="1820" y="160" />
              <mxPoint x="1980" y="160" />
            </Array>
          </mxGeometry>
        </mxCell>
        <mxCell id="75G5733rcRjuY9G1SH0R-19" style="edgeStyle=orthogonalEdgeStyle;rounded=0;orthogonalLoop=1;jettySize=auto;html=1;exitX=0.83;exitY=1;exitDx=0;exitDy=0;exitPerimeter=0;entryX=0.5;entryY=0;entryDx=0;entryDy=0;" edge="1" parent="1" source="_-ETWRvwGzVZ8Kp8he9H-1" target="75G5733rcRjuY9G1SH0R-8">
          <mxGeometry relative="1" as="geometry">
            <Array as="points">
              <mxPoint x="1640" y="130" />
            </Array>
          </mxGeometry>
        </mxCell>
        <mxCell id="75G5733rcRjuY9G1SH0R-20" style="edgeStyle=orthogonalEdgeStyle;rounded=0;orthogonalLoop=1;jettySize=auto;html=1;exitX=0.75;exitY=1;exitDx=0;exitDy=0;exitPerimeter=0;entryX=0.5;entryY=0;entryDx=0;entryDy=0;" edge="1" parent="1" source="_-ETWRvwGzVZ8Kp8he9H-1" target="75G5733rcRjuY9G1SH0R-5">
          <mxGeometry relative="1" as="geometry">
            <Array as="points">
              <mxPoint x="1420" y="130" />
            </Array>
          </mxGeometry>
        </mxCell>
        <mxCell id="75G5733rcRjuY9G1SH0R-21" style="edgeStyle=orthogonalEdgeStyle;rounded=0;orthogonalLoop=1;jettySize=auto;html=1;exitX=0.58;exitY=0.8;exitDx=0;exitDy=0;exitPerimeter=0;entryX=0.5;entryY=0;entryDx=0;entryDy=0;" edge="1" parent="1" source="_-ETWRvwGzVZ8Kp8he9H-1" target="75G5733rcRjuY9G1SH0R-2">
          <mxGeometry relative="1" as="geometry">
            <Array as="points">
              <mxPoint x="1164" y="130" />
              <mxPoint x="1220" y="130" />
            </Array>
          </mxGeometry>
        </mxCell>
        <mxCell id="_-ETWRvwGzVZ8Kp8he9H-1" value="" style="rounded=0;whiteSpace=wrap;html=1;strokeColor=#000000;fillColor=#000000;points=[[0,0,0,0,0],[0,0.25,0,0,0],[0,0.5,0,0,0],[0,0.75,0,0,0],[0,1,0,0,0],[0.08,0.9,0,0,0],[0.16,1,0,0,1],[0.25,0,0,0,0],[0.25,1,0,0,1],[0.36,1,0,0,1],[0.43,1,0,0,0],[0.5,0,0,0,0],[0.5,1,0,0,0],[0.58,0.8,0,0,0],[0.66,1,0,0,0],[0.75,0,0,0,0],[0.75,1,0,0,0],[0.83,1,0,0,0],[0.92,1,0,0,0],[1,0,0,0,0],[1,0.25,0,0,0],[1,0.5,0,0,0],[1,0.75,0,0,0],[1,1,0,0,0]];" vertex="1" parent="1">
          <mxGeometry x="120" y="120" width="1800" height="10" as="geometry" />
        </mxCell>
        <mxCell id="_-ETWRvwGzVZ8Kp8he9H-2" value="" style="edgeStyle=orthogonalEdgeStyle;rounded=0;orthogonalLoop=1;jettySize=auto;html=1;" edge="1" parent="1" source="_-ETWRvwGzVZ8Kp8he9H-3" target="_-ETWRvwGzVZ8Kp8he9H-4">
          <mxGeometry relative="1" as="geometry" />
        </mxCell>
        <mxCell id="_-ETWRvwGzVZ8Kp8he9H-3" value="Get data from&lt;br&gt;Camera" style="rounded=0;whiteSpace=wrap;html=1;" vertex="1" parent="1">
          <mxGeometry x="160" y="200" width="120" height="40" as="geometry" />
        </mxCell>
        <mxCell id="YpXBOmHnXNf6-hZ5yqB--2" value="" style="edgeStyle=orthogonalEdgeStyle;rounded=0;orthogonalLoop=1;jettySize=auto;html=1;" edge="1" parent="1" source="_-ETWRvwGzVZ8Kp8he9H-4" target="YpXBOmHnXNf6-hZ5yqB--1">
          <mxGeometry relative="1" as="geometry" />
        </mxCell>
        <mxCell id="_-ETWRvwGzVZ8Kp8he9H-4" value="Analyse data from&lt;br&gt;Camera" style="rounded=0;whiteSpace=wrap;html=1;" vertex="1" parent="1">
          <mxGeometry x="160" y="280" width="120" height="40" as="geometry" />
        </mxCell>
        <mxCell id="_-ETWRvwGzVZ8Kp8he9H-5" value="" style="edgeStyle=orthogonalEdgeStyle;rounded=0;orthogonalLoop=1;jettySize=auto;html=1;" edge="1" parent="1" source="_-ETWRvwGzVZ8Kp8he9H-6" target="_-ETWRvwGzVZ8Kp8he9H-7">
          <mxGeometry relative="1" as="geometry" />
        </mxCell>
        <mxCell id="_-ETWRvwGzVZ8Kp8he9H-6" value="Get data from&lt;br&gt;LIDAR" style="rounded=0;whiteSpace=wrap;html=1;" vertex="1" parent="1">
          <mxGeometry x="360" y="200" width="120" height="40" as="geometry" />
        </mxCell>
        <mxCell id="QH0lwMmxFJA0E1xjVq8S-24" value="" style="edgeStyle=orthogonalEdgeStyle;rounded=0;orthogonalLoop=1;jettySize=auto;html=1;" edge="1" parent="1" source="_-ETWRvwGzVZ8Kp8he9H-7" target="QH0lwMmxFJA0E1xjVq8S-22">
          <mxGeometry relative="1" as="geometry" />
        </mxCell>
        <mxCell id="_-ETWRvwGzVZ8Kp8he9H-7" value="Analyse data from&lt;br&gt;LIDAR" style="rounded=0;whiteSpace=wrap;html=1;" vertex="1" parent="1">
          <mxGeometry x="360" y="280" width="120" height="40" as="geometry" />
        </mxCell>
        <mxCell id="_-ETWRvwGzVZ8Kp8he9H-8" value="" style="edgeStyle=orthogonalEdgeStyle;rounded=0;orthogonalLoop=1;jettySize=auto;html=1;" edge="1" parent="1" source="_-ETWRvwGzVZ8Kp8he9H-9" target="_-ETWRvwGzVZ8Kp8he9H-10">
          <mxGeometry relative="1" as="geometry" />
        </mxCell>
        <mxCell id="_-ETWRvwGzVZ8Kp8he9H-9" value="Get data from&lt;br&gt;ultrasonic sensor" style="rounded=0;whiteSpace=wrap;html=1;" vertex="1" parent="1">
          <mxGeometry x="560" y="200" width="120" height="40" as="geometry" />
        </mxCell>
        <mxCell id="QH0lwMmxFJA0E1xjVq8S-30" value="" style="edgeStyle=orthogonalEdgeStyle;rounded=0;orthogonalLoop=1;jettySize=auto;html=1;" edge="1" parent="1" source="_-ETWRvwGzVZ8Kp8he9H-10" target="QH0lwMmxFJA0E1xjVq8S-28">
          <mxGeometry relative="1" as="geometry" />
        </mxCell>
        <mxCell id="_-ETWRvwGzVZ8Kp8he9H-10" value="Analyse data from&lt;br&gt;ultrasonic sensor" style="rounded=0;whiteSpace=wrap;html=1;" vertex="1" parent="1">
          <mxGeometry x="560" y="280" width="120" height="40" as="geometry" />
        </mxCell>
        <mxCell id="_-ETWRvwGzVZ8Kp8he9H-11" value="" style="edgeStyle=orthogonalEdgeStyle;rounded=0;orthogonalLoop=1;jettySize=auto;html=1;" edge="1" parent="1" source="_-ETWRvwGzVZ8Kp8he9H-12" target="_-ETWRvwGzVZ8Kp8he9H-13">
          <mxGeometry relative="1" as="geometry" />
        </mxCell>
        <mxCell id="_-ETWRvwGzVZ8Kp8he9H-12" value="Get data from&lt;br&gt;ultrasonic sensor" style="rounded=0;whiteSpace=wrap;html=1;" vertex="1" parent="1">
          <mxGeometry x="760" y="200" width="120" height="40" as="geometry" />
        </mxCell>
        <mxCell id="_-ETWRvwGzVZ8Kp8he9H-13" value="Analyse data from&lt;br&gt;ultrasonic sensor" style="rounded=0;whiteSpace=wrap;html=1;" vertex="1" parent="1">
          <mxGeometry x="760" y="280" width="120" height="40" as="geometry" />
        </mxCell>
        <mxCell id="vYcy1sxZ9E77AcA9SgFG-3" style="edgeStyle=orthogonalEdgeStyle;rounded=0;orthogonalLoop=1;jettySize=auto;html=1;exitX=0.5;exitY=1;exitDx=0;exitDy=0;entryX=0.5;entryY=0;entryDx=0;entryDy=0;entryPerimeter=0;" edge="1" parent="1" source="vYcy1sxZ9E77AcA9SgFG-1" target="_-ETWRvwGzVZ8Kp8he9H-1">
          <mxGeometry relative="1" as="geometry" />
        </mxCell>
        <mxCell id="vYcy1sxZ9E77AcA9SgFG-1" value="" style="ellipse;html=1;shape=startState;fillColor=#000000;strokeColor=default;" vertex="1" parent="1">
          <mxGeometry x="1000" y="40" width="40" height="40" as="geometry" />
        </mxCell>
        <mxCell id="Mk3yW9NYiBY1qTwdTPgu-1" value="" style="edgeStyle=orthogonalEdgeStyle;rounded=0;orthogonalLoop=1;jettySize=auto;html=1;" edge="1" parent="1" source="Mk3yW9NYiBY1qTwdTPgu-2" target="Mk3yW9NYiBY1qTwdTPgu-3">
          <mxGeometry relative="1" as="geometry" />
        </mxCell>
        <mxCell id="Mk3yW9NYiBY1qTwdTPgu-2" value="Get data from&lt;br&gt;wheel speed sensor" style="rounded=0;whiteSpace=wrap;html=1;" vertex="1" parent="1">
          <mxGeometry x="950" y="200" width="120" height="40" as="geometry" />
        </mxCell>
        <mxCell id="Mk3yW9NYiBY1qTwdTPgu-3" value="Analyse data from&lt;br&gt;wheel speed&amp;nbsp;sensor" style="rounded=0;whiteSpace=wrap;html=1;" vertex="1" parent="1">
          <mxGeometry x="950" y="280" width="120" height="40" as="geometry" />
        </mxCell>
        <mxCell id="75G5733rcRjuY9G1SH0R-1" value="" style="edgeStyle=orthogonalEdgeStyle;rounded=0;orthogonalLoop=1;jettySize=auto;html=1;" edge="1" parent="1" source="75G5733rcRjuY9G1SH0R-2" target="75G5733rcRjuY9G1SH0R-3">
          <mxGeometry relative="1" as="geometry" />
        </mxCell>
        <mxCell id="75G5733rcRjuY9G1SH0R-2" value="Get data from&lt;br&gt;steering sensor" style="rounded=0;whiteSpace=wrap;html=1;" vertex="1" parent="1">
          <mxGeometry x="1160" y="200" width="120" height="40" as="geometry" />
        </mxCell>
        <mxCell id="QH0lwMmxFJA0E1xjVq8S-18" value="" style="edgeStyle=orthogonalEdgeStyle;rounded=0;orthogonalLoop=1;jettySize=auto;html=1;" edge="1" parent="1" source="75G5733rcRjuY9G1SH0R-3" target="QH0lwMmxFJA0E1xjVq8S-17">
          <mxGeometry relative="1" as="geometry" />
        </mxCell>
        <mxCell id="75G5733rcRjuY9G1SH0R-3" value="Analyse data from&lt;br&gt;steering sensor" style="rounded=0;whiteSpace=wrap;html=1;" vertex="1" parent="1">
          <mxGeometry x="1160" y="280" width="120" height="40" as="geometry" />
        </mxCell>
        <mxCell id="75G5733rcRjuY9G1SH0R-4" value="" style="edgeStyle=orthogonalEdgeStyle;rounded=0;orthogonalLoop=1;jettySize=auto;html=1;" edge="1" parent="1" source="75G5733rcRjuY9G1SH0R-5" target="75G5733rcRjuY9G1SH0R-6">
          <mxGeometry relative="1" as="geometry" />
        </mxCell>
        <mxCell id="75G5733rcRjuY9G1SH0R-5" value="Get data from&lt;br&gt;tire pressure sensor" style="rounded=0;whiteSpace=wrap;html=1;" vertex="1" parent="1">
          <mxGeometry x="1360" y="200" width="120" height="40" as="geometry" />
        </mxCell>
        <mxCell id="QH0lwMmxFJA0E1xjVq8S-9" value="" style="edgeStyle=orthogonalEdgeStyle;rounded=0;orthogonalLoop=1;jettySize=auto;html=1;" edge="1" parent="1" source="75G5733rcRjuY9G1SH0R-6" target="QH0lwMmxFJA0E1xjVq8S-7">
          <mxGeometry relative="1" as="geometry" />
        </mxCell>
        <mxCell id="75G5733rcRjuY9G1SH0R-6" value="Analyse data from&lt;br&gt;tire pressure&amp;nbsp;sensor" style="rounded=0;whiteSpace=wrap;html=1;" vertex="1" parent="1">
          <mxGeometry x="1360" y="280" width="120" height="40" as="geometry" />
        </mxCell>
        <mxCell id="75G5733rcRjuY9G1SH0R-7" value="" style="edgeStyle=orthogonalEdgeStyle;rounded=0;orthogonalLoop=1;jettySize=auto;html=1;" edge="1" parent="1" source="75G5733rcRjuY9G1SH0R-8" target="75G5733rcRjuY9G1SH0R-9">
          <mxGeometry relative="1" as="geometry" />
        </mxCell>
        <mxCell id="75G5733rcRjuY9G1SH0R-8" value="Get data from&lt;br&gt;engine temperature sensor" style="rounded=0;whiteSpace=wrap;html=1;" vertex="1" parent="1">
          <mxGeometry x="1560" y="200" width="160" height="40" as="geometry" />
        </mxCell>
        <mxCell id="QH0lwMmxFJA0E1xjVq8S-2" value="" style="edgeStyle=orthogonalEdgeStyle;rounded=0;orthogonalLoop=1;jettySize=auto;html=1;" edge="1" parent="1" source="75G5733rcRjuY9G1SH0R-9" target="QH0lwMmxFJA0E1xjVq8S-1">
          <mxGeometry relative="1" as="geometry" />
        </mxCell>
        <mxCell id="75G5733rcRjuY9G1SH0R-9" value="Analyse data from&lt;br&gt;engine temperature&amp;nbsp;sensor" style="rounded=0;whiteSpace=wrap;html=1;" vertex="1" parent="1">
          <mxGeometry x="1560" y="280" width="160" height="40" as="geometry" />
        </mxCell>
        <mxCell id="75G5733rcRjuY9G1SH0R-10" value="" style="edgeStyle=orthogonalEdgeStyle;rounded=0;orthogonalLoop=1;jettySize=auto;html=1;" edge="1" parent="1" source="75G5733rcRjuY9G1SH0R-11" target="75G5733rcRjuY9G1SH0R-12">
          <mxGeometry relative="1" as="geometry" />
        </mxCell>
        <mxCell id="75G5733rcRjuY9G1SH0R-11" value="Get data from&lt;br&gt;brake status sensor" style="rounded=0;whiteSpace=wrap;html=1;" vertex="1" parent="1">
          <mxGeometry x="1920" y="200" width="120" height="40" as="geometry" />
        </mxCell>
        <mxCell id="YpXBOmHnXNf6-hZ5yqB--11" value="" style="edgeStyle=orthogonalEdgeStyle;rounded=0;orthogonalLoop=1;jettySize=auto;html=1;" edge="1" parent="1" source="75G5733rcRjuY9G1SH0R-12" target="YpXBOmHnXNf6-hZ5yqB--9">
          <mxGeometry relative="1" as="geometry" />
        </mxCell>
        <mxCell id="75G5733rcRjuY9G1SH0R-12" value="Analyse data from&lt;br&gt;brake status&amp;nbsp;sensor" style="rounded=0;whiteSpace=wrap;html=1;" vertex="1" parent="1">
          <mxGeometry x="1920" y="280" width="120" height="40" as="geometry" />
        </mxCell>
        <mxCell id="YpXBOmHnXNf6-hZ5yqB--3" style="edgeStyle=orthogonalEdgeStyle;rounded=0;orthogonalLoop=1;jettySize=auto;html=1;exitX=0;exitY=0.5;exitDx=0;exitDy=0;entryX=0;entryY=0.5;entryDx=0;entryDy=0;" edge="1" parent="1" source="YpXBOmHnXNf6-hZ5yqB--1" target="_-ETWRvwGzVZ8Kp8he9H-3">
          <mxGeometry relative="1" as="geometry">
            <Array as="points">
              <mxPoint x="120" y="420" />
              <mxPoint x="120" y="220" />
            </Array>
          </mxGeometry>
        </mxCell>
        <mxCell id="YpXBOmHnXNf6-hZ5yqB--4" value="No" style="edgeLabel;html=1;align=center;verticalAlign=middle;resizable=0;points=[];labelBackgroundColor=none;" vertex="1" connectable="0" parent="YpXBOmHnXNf6-hZ5yqB--3">
          <mxGeometry x="-0.796" relative="1" as="geometry">
            <mxPoint x="8" y="-10" as="offset" />
          </mxGeometry>
        </mxCell>
        <mxCell id="YpXBOmHnXNf6-hZ5yqB--6" value="Yes" style="edgeStyle=orthogonalEdgeStyle;rounded=0;orthogonalLoop=1;jettySize=auto;html=1;labelBackgroundColor=none;" edge="1" parent="1" source="YpXBOmHnXNf6-hZ5yqB--1" target="YpXBOmHnXNf6-hZ5yqB--5">
          <mxGeometry y="10" relative="1" as="geometry">
            <mxPoint as="offset" />
          </mxGeometry>
        </mxCell>
        <mxCell id="YpXBOmHnXNf6-hZ5yqB--1" value="objectDetected &lt;br&gt;== True" style="rhombus;whiteSpace=wrap;html=1;fillColor=default;fontSize=10;" vertex="1" parent="1">
          <mxGeometry x="160" y="360" width="120" height="120" as="geometry" />
        </mxCell>
        <mxCell id="YpXBOmHnXNf6-hZ5yqB--5" value="Object Recognition" style="rounded=0;whiteSpace=wrap;html=1;" vertex="1" parent="1">
          <mxGeometry x="160" y="520" width="120" height="40" as="geometry" />
        </mxCell>
        <mxCell id="YpXBOmHnXNf6-hZ5yqB--8" value="Yes" style="edgeStyle=orthogonalEdgeStyle;rounded=0;orthogonalLoop=1;jettySize=auto;html=1;labelBackgroundColor=none;entryX=0.5;entryY=0;entryDx=0;entryDy=0;" edge="1" parent="1" source="YpXBOmHnXNf6-hZ5yqB--9" target="8Fic7v7qmDQ8hgU-nSJI-2">
          <mxGeometry y="10" relative="1" as="geometry">
            <mxPoint as="offset" />
            <mxPoint x="1980" y="520" as="targetPoint" />
          </mxGeometry>
        </mxCell>
        <mxCell id="YpXBOmHnXNf6-hZ5yqB--13" value="No" style="edgeStyle=orthogonalEdgeStyle;rounded=0;orthogonalLoop=1;jettySize=auto;html=1;exitX=1;exitY=0.5;exitDx=0;exitDy=0;entryX=0;entryY=0.5;entryDx=0;entryDy=0;labelBackgroundColor=none;" edge="1" parent="1" source="YpXBOmHnXNf6-hZ5yqB--9">
          <mxGeometry y="10" relative="1" as="geometry">
            <mxPoint x="2120" y="420" as="targetPoint" />
            <Array as="points">
              <mxPoint x="2100" y="420" />
              <mxPoint x="2100" y="420" />
            </Array>
            <mxPoint as="offset" />
          </mxGeometry>
        </mxCell>
        <mxCell id="YpXBOmHnXNf6-hZ5yqB--9" value="brake = fullBrakeValue" style="rhombus;whiteSpace=wrap;html=1;fillColor=default;fontSize=10;" vertex="1" parent="1">
          <mxGeometry x="1920" y="360" width="120" height="120" as="geometry" />
        </mxCell>
        <mxCell id="YpXBOmHnXNf6-hZ5yqB--26" style="edgeStyle=orthogonalEdgeStyle;rounded=0;orthogonalLoop=1;jettySize=auto;html=1;exitX=0.5;exitY=1;exitDx=0;exitDy=0;entryX=0.5;entryY=0;entryDx=0;entryDy=0;" edge="1" parent="1" source="YpXBOmHnXNf6-hZ5yqB--24" target="75G5733rcRjuY9G1SH0R-11">
          <mxGeometry relative="1" as="geometry">
            <Array as="points">
              <mxPoint x="2180" y="480" />
              <mxPoint x="2280" y="480" />
              <mxPoint x="2280" y="160" />
              <mxPoint x="1980" y="160" />
            </Array>
          </mxGeometry>
        </mxCell>
        <mxCell id="YpXBOmHnXNf6-hZ5yqB--24" value="Actuate on Brakes" style="rounded=0;whiteSpace=wrap;html=1;" vertex="1" parent="1">
          <mxGeometry x="2120" y="400" width="120" height="40" as="geometry" />
        </mxCell>
        <mxCell id="8Fic7v7qmDQ8hgU-nSJI-1" value="Return&lt;br&gt;emergencyBrake = True" style="rounded=1;whiteSpace=wrap;html=1;" vertex="1" parent="1">
          <mxGeometry x="1900" y="600" width="160" height="40" as="geometry" />
        </mxCell>
        <mxCell id="8Fic7v7qmDQ8hgU-nSJI-5" value="" style="edgeStyle=orthogonalEdgeStyle;rounded=0;orthogonalLoop=1;jettySize=auto;html=1;" edge="1" parent="1" source="8Fic7v7qmDQ8hgU-nSJI-2" target="8Fic7v7qmDQ8hgU-nSJI-1">
          <mxGeometry relative="1" as="geometry" />
        </mxCell>
        <mxCell id="8Fic7v7qmDQ8hgU-nSJI-2" value="Act on Brakes" style="rounded=0;whiteSpace=wrap;html=1;" vertex="1" parent="1">
          <mxGeometry x="1920" y="520" width="120" height="40" as="geometry" />
        </mxCell>
        <mxCell id="QH0lwMmxFJA0E1xjVq8S-3" value="No" style="edgeStyle=orthogonalEdgeStyle;rounded=0;orthogonalLoop=1;jettySize=auto;html=1;exitX=1;exitY=0.5;exitDx=0;exitDy=0;entryX=0.5;entryY=0;entryDx=0;entryDy=0;labelBackgroundColor=none;" edge="1" parent="1" source="QH0lwMmxFJA0E1xjVq8S-1" target="75G5733rcRjuY9G1SH0R-8">
          <mxGeometry x="-0.875" y="10" relative="1" as="geometry">
            <Array as="points">
              <mxPoint x="1760" y="420" />
              <mxPoint x="1760" y="160" />
              <mxPoint x="1640" y="160" />
            </Array>
            <mxPoint as="offset" />
          </mxGeometry>
        </mxCell>
        <mxCell id="QH0lwMmxFJA0E1xjVq8S-5" style="edgeStyle=orthogonalEdgeStyle;rounded=0;orthogonalLoop=1;jettySize=auto;html=1;exitX=0.5;exitY=1;exitDx=0;exitDy=0;entryX=0.5;entryY=0;entryDx=0;entryDy=0;" edge="1" parent="1" source="QH0lwMmxFJA0E1xjVq8S-1" target="QH0lwMmxFJA0E1xjVq8S-4">
          <mxGeometry relative="1" as="geometry" />
        </mxCell>
        <mxCell id="QH0lwMmxFJA0E1xjVq8S-1" value="engineTemperature&lt;br&gt;&amp;gt; safeTemperature" style="rhombus;whiteSpace=wrap;html=1;fillColor=default;fontSize=10;" vertex="1" parent="1">
          <mxGeometry x="1580" y="360" width="120" height="120" as="geometry" />
        </mxCell>
        <mxCell id="QH0lwMmxFJA0E1xjVq8S-4" value="Return&lt;br&gt;engineOverheat = True" style="rounded=1;whiteSpace=wrap;html=1;" vertex="1" parent="1">
          <mxGeometry x="1560" y="600" width="160" height="40" as="geometry" />
        </mxCell>
        <mxCell id="QH0lwMmxFJA0E1xjVq8S-6" style="edgeStyle=orthogonalEdgeStyle;rounded=0;orthogonalLoop=1;jettySize=auto;html=1;exitX=0.5;exitY=1;exitDx=0;exitDy=0;entryX=0.5;entryY=0;entryDx=0;entryDy=0;" edge="1" parent="1" source="QH0lwMmxFJA0E1xjVq8S-7" target="QH0lwMmxFJA0E1xjVq8S-8">
          <mxGeometry relative="1" as="geometry" />
        </mxCell>
        <mxCell id="QH0lwMmxFJA0E1xjVq8S-16" value="No" style="edgeLabel;html=1;align=center;verticalAlign=middle;resizable=0;points=[];labelBackgroundColor=none;" vertex="1" connectable="0" parent="QH0lwMmxFJA0E1xjVq8S-6">
          <mxGeometry x="-0.2409" relative="1" as="geometry">
            <mxPoint x="-10" y="5" as="offset" />
          </mxGeometry>
        </mxCell>
        <mxCell id="QH0lwMmxFJA0E1xjVq8S-14" style="edgeStyle=orthogonalEdgeStyle;rounded=0;orthogonalLoop=1;jettySize=auto;html=1;exitX=1;exitY=0.5;exitDx=0;exitDy=0;entryX=0.5;entryY=0;entryDx=0;entryDy=0;" edge="1" parent="1" source="QH0lwMmxFJA0E1xjVq8S-7" target="75G5733rcRjuY9G1SH0R-5">
          <mxGeometry relative="1" as="geometry">
            <Array as="points">
              <mxPoint x="1520" y="440" />
              <mxPoint x="1520" y="160" />
              <mxPoint x="1420" y="160" />
            </Array>
          </mxGeometry>
        </mxCell>
        <mxCell id="QH0lwMmxFJA0E1xjVq8S-15" value="Yes" style="edgeLabel;html=1;align=center;verticalAlign=middle;resizable=0;points=[];labelBackgroundColor=none;" vertex="1" connectable="0" parent="QH0lwMmxFJA0E1xjVq8S-14">
          <mxGeometry x="-0.8222" y="-1" relative="1" as="geometry">
            <mxPoint x="-11" y="-21" as="offset" />
          </mxGeometry>
        </mxCell>
        <mxCell id="QH0lwMmxFJA0E1xjVq8S-7" value="tirePressure &amp;gt; minPressure&lt;br&gt;AND&lt;br&gt;tirePressure &amp;lt; maxPressure" style="rhombus;whiteSpace=wrap;html=1;fillColor=default;fontSize=10;" vertex="1" parent="1">
          <mxGeometry x="1340" y="360" width="160" height="160" as="geometry" />
        </mxCell>
        <mxCell id="QH0lwMmxFJA0E1xjVq8S-8" value="Return&lt;br&gt;badTirePressure = True" style="rounded=1;whiteSpace=wrap;html=1;" vertex="1" parent="1">
          <mxGeometry x="1340" y="600" width="160" height="40" as="geometry" />
        </mxCell>
        <mxCell id="QH0lwMmxFJA0E1xjVq8S-17" value="Act on Steering" style="rounded=0;whiteSpace=wrap;html=1;" vertex="1" parent="1">
          <mxGeometry x="1160" y="360" width="120" height="40" as="geometry" />
        </mxCell>
        <mxCell id="QH0lwMmxFJA0E1xjVq8S-19" style="edgeStyle=orthogonalEdgeStyle;rounded=0;orthogonalLoop=1;jettySize=auto;html=1;exitX=0;exitY=0.5;exitDx=0;exitDy=0;entryX=0;entryY=0.5;entryDx=0;entryDy=0;" edge="1" parent="1" source="QH0lwMmxFJA0E1xjVq8S-22" target="_-ETWRvwGzVZ8Kp8he9H-6">
          <mxGeometry relative="1" as="geometry">
            <mxPoint x="360" y="220" as="targetPoint" />
            <Array as="points">
              <mxPoint x="320" y="420" />
              <mxPoint x="320" y="220" />
            </Array>
          </mxGeometry>
        </mxCell>
        <mxCell id="QH0lwMmxFJA0E1xjVq8S-20" value="No" style="edgeLabel;html=1;align=center;verticalAlign=middle;resizable=0;points=[];labelBackgroundColor=none;" vertex="1" connectable="0" parent="QH0lwMmxFJA0E1xjVq8S-19">
          <mxGeometry x="-0.796" relative="1" as="geometry">
            <mxPoint x="8" y="-10" as="offset" />
          </mxGeometry>
        </mxCell>
        <mxCell id="QH0lwMmxFJA0E1xjVq8S-21" value="Yes" style="edgeStyle=orthogonalEdgeStyle;rounded=0;orthogonalLoop=1;jettySize=auto;html=1;labelBackgroundColor=none;" edge="1" parent="1" source="QH0lwMmxFJA0E1xjVq8S-22" target="QH0lwMmxFJA0E1xjVq8S-23">
          <mxGeometry y="10" relative="1" as="geometry">
            <mxPoint as="offset" />
          </mxGeometry>
        </mxCell>
        <mxCell id="QH0lwMmxFJA0E1xjVq8S-22" value="objectDetected &lt;br&gt;== True" style="rhombus;whiteSpace=wrap;html=1;fillColor=default;fontSize=10;" vertex="1" parent="1">
          <mxGeometry x="360" y="360" width="120" height="120" as="geometry" />
        </mxCell>
        <mxCell id="QH0lwMmxFJA0E1xjVq8S-23" value="Calculate distance to object" style="rounded=0;whiteSpace=wrap;html=1;" vertex="1" parent="1">
          <mxGeometry x="360" y="520" width="120" height="40" as="geometry" />
        </mxCell>
        <mxCell id="QH0lwMmxFJA0E1xjVq8S-25" style="edgeStyle=orthogonalEdgeStyle;rounded=0;orthogonalLoop=1;jettySize=auto;html=1;exitX=0;exitY=0.5;exitDx=0;exitDy=0;entryX=0;entryY=0.5;entryDx=0;entryDy=0;" edge="1" parent="1" source="QH0lwMmxFJA0E1xjVq8S-28" target="_-ETWRvwGzVZ8Kp8he9H-9">
          <mxGeometry relative="1" as="geometry">
            <mxPoint x="560" y="220" as="targetPoint" />
            <Array as="points">
              <mxPoint x="520" y="420" />
              <mxPoint x="520" y="220" />
            </Array>
          </mxGeometry>
        </mxCell>
        <mxCell id="QH0lwMmxFJA0E1xjVq8S-26" value="No" style="edgeLabel;html=1;align=center;verticalAlign=middle;resizable=0;points=[];labelBackgroundColor=none;" vertex="1" connectable="0" parent="QH0lwMmxFJA0E1xjVq8S-25">
          <mxGeometry x="-0.796" relative="1" as="geometry">
            <mxPoint x="8" y="-10" as="offset" />
          </mxGeometry>
        </mxCell>
        <mxCell id="QH0lwMmxFJA0E1xjVq8S-27" value="Yes" style="edgeStyle=orthogonalEdgeStyle;rounded=0;orthogonalLoop=1;jettySize=auto;html=1;labelBackgroundColor=none;" edge="1" parent="1" source="QH0lwMmxFJA0E1xjVq8S-28" target="QH0lwMmxFJA0E1xjVq8S-29">
          <mxGeometry y="10" relative="1" as="geometry">
            <mxPoint as="offset" />
          </mxGeometry>
        </mxCell>
        <mxCell id="QH0lwMmxFJA0E1xjVq8S-28" value="objectDetected &lt;br&gt;== True" style="rhombus;whiteSpace=wrap;html=1;fillColor=default;fontSize=10;" vertex="1" parent="1">
          <mxGeometry x="560" y="360" width="120" height="120" as="geometry" />
        </mxCell>
        <mxCell id="QH0lwMmxFJA0E1xjVq8S-29" value="Calculate distance to object" style="rounded=0;whiteSpace=wrap;html=1;" vertex="1" parent="1">
          <mxGeometry x="560" y="520" width="120" height="40" as="geometry" />
        </mxCell>
        <mxCell id="QH0lwMmxFJA0E1xjVq8S-31" value="objectDetected &lt;br&gt;== True" style="rhombus;whiteSpace=wrap;html=1;fillColor=default;fontSize=10;" vertex="1" parent="1">
          <mxGeometry x="360" y="600" width="120" height="120" as="geometry" />
        </mxCell>
        <mxCell id="QH0lwMmxFJA0E1xjVq8S-32" value="objectDetected &lt;br&gt;== True" style="rhombus;whiteSpace=wrap;html=1;fillColor=default;fontSize=10;" vertex="1" parent="1">
          <mxGeometry x="560" y="600" width="120" height="120" as="geometry" />
        </mxCell>
      </root>
    </mxGraphModel>
  </diagram>
</mxfile>
